<svg id="BI_refuel" xmlns="http://www.w3.org/2000/svg" xmlns:xlink="http://www.w3.org/1999/xlink" width="85.186" height="20" viewBox="0 0 85.186 20">
  <defs>
    <clipPath id="clip-path">
      <rect id="사각형_7198" data-name="사각형 7198" width="20" height="20" fill="none"/>
    </clipPath>
  </defs>
  <g id="text" transform="translate(28 2)">
    <path id="패스_19532" data-name="패스 19532" d="M9.776,5.757h1.8V1.348a.047.047,0,0,0-.048-.048h-1.7a.049.049,0,0,0-.048.048Z" transform="translate(-3.321 -0.32)" fill="#0f1f2e"/>
    <path id="패스_19533" data-name="패스 19533" d="M9.638,1.3h-1.7a.052.052,0,0,0-.051.048V11.5a.671.671,0,0,0,.673.669H11.7a.191.191,0,0,0,.14-.061l1.523-1.52a.05.05,0,0,0-.034-.085H9.689V1.347A.052.052,0,0,0,9.638,1.3" transform="translate(-7.886 -0.322)" fill="#0f1f2e"/>
    <path id="패스_19534" data-name="패스 19534" d="M20.11,10.475h3.456a.2.2,0,0,0,.14-.058L25.226,8.9a.047.047,0,0,0-.034-.082H15.561v-2.1h8.763a.049.049,0,0,0,.048-.048v-4.7A.667.667,0,0,0,23.7,1.3H14.987a.2.2,0,0,0-.14.058l-1.52,1.515a.05.05,0,0,0,.034.085h9.173v2.1H13.771a.05.05,0,0,0-.051.048v4.7a.669.669,0,0,0,.669.667H18.31v2.1H12.231a.05.05,0,0,0-.051.048v1.559a.052.052,0,0,0,.051.051H25.865a.052.052,0,0,0,.051-.051V12.624a.05.05,0,0,0-.051-.048H20.11Z" transform="translate(2.347 -0.32)" fill="#0f1f2e"/>
    <path id="패스_19535" data-name="패스 19535" d="M24.009,5.171V9.976a.05.05,0,0,0,.051.051h1.7a.053.053,0,0,0,.051-.051V5.171H29.2V9.976a.053.053,0,0,0,.051.051h1.7a.053.053,0,0,0,.051-.051V5.171h2.5a.193.193,0,0,0,.14-.058L35.173,3.59a.049.049,0,0,0-.038-.082H22.1a.2.2,0,0,0-.14.058l-1.52,1.52a.05.05,0,0,0,.034.085Z" transform="translate(21.999 4.972)" fill="#0f1f2e"/>
    <path id="패스_19536" data-name="패스 19536" d="M26.2,2.694c1.923,0,3.251.765,3.251,2,0,1.216-1.359,2-3.251,2-1.875,0-3.221-.786-3.221-2,0-1.236,1.315-2,3.221-2m0,5.56c3.1,0,5.239-1.4,5.239-3.559,0-2.145-2.138-3.531-5.239-3.531-3.084,0-5.212,1.387-5.212,3.531,0,2.162,2.128,3.559,5.212,3.559" transform="translate(23.362 -0.648)" fill="#0f1f2e"/>
    <path id="패스_19537" data-name="패스 19537" d="M12.429,4.755v3.6a.051.051,0,0,0,.085.038L14.17,6.736a.2.2,0,0,0,.058-.14V3.525a.67.67,0,0,0-.669-.669h-3.07a.2.2,0,0,0-.14.058L8.692,4.57a.05.05,0,0,0,.034.085h3.6a.1.1,0,0,1,.1.1" transform="translate(-5.974 3.413)" fill="#0f1f2e"/>
    <path id="패스_19538" data-name="패스 19538" d="M12.8,1.013H11.1a.05.05,0,0,0-.048.051V15.959a.05.05,0,0,0,.048.051h1.7a.05.05,0,0,0,.048-.051V7.406h.99a.2.2,0,0,0,.14-.058L15.5,5.833a.049.049,0,0,0-.034-.085H12.849V1.064a.05.05,0,0,0-.048-.051" transform="translate(-0.237 -1.013)" fill="#0f1f2e"/>
    <path id="패스_19539" data-name="패스 19539" d="M22.544,5.07l.024.014,4.761,2.811a.051.051,0,0,0,.061-.01l1.13-1.154a.047.047,0,0,0-.01-.075l-5.065-2.91V2.963h4.723a.049.049,0,0,0,.048-.048V1.348a.047.047,0,0,0-.048-.048H16.919a.047.047,0,0,0-.048.048V2.915a.049.049,0,0,0,.048.048h4.727v.782l-.027.014L16.551,6.652a.05.05,0,0,0-.01.079l1.154,1.158a.057.057,0,0,0,.061.007Z" transform="translate(12.71 -0.32)" fill="#0f1f2e"/>
    <path id="패스_19540" data-name="패스 19540" d="M22.928,5.171V9.976a.05.05,0,0,0,.048.051h1.7a.05.05,0,0,0,.048-.051l.007-4.805h4.757a.193.193,0,0,0,.14-.058L31.155,3.59a.048.048,0,0,0-.034-.082H17.672a.193.193,0,0,0-.14.058l-1.523,1.52a.051.051,0,0,0,.038.085Z" transform="translate(11.434 4.972)" fill="#0f1f2e"/>
  </g>
  <g id="그룹_20386" data-name="그룹 20386" clip-path="url(#clip-path)">
    <path id="패스_19604" data-name="패스 19604" d="M10,20A10,10,0,1,0,0,10,10,10,0,0,0,10,20" transform="translate(0 0)" fill="#3cdc87"/>
    <g id="그룹_20660" data-name="그룹 20660" transform="translate(4 4.3)">
      <path id="패스_19605" data-name="패스 19605" d="M3.922,1.6,1.409,4.191a.136.136,0,0,0,.092.233H9.544a.138.138,0,0,1,.135.139v8.28a.131.131,0,0,0,.226.095l2.513-2.587a.252.252,0,0,0,.07-.176V1.667a.133.133,0,0,0-.132-.135H4.093a.237.237,0,0,0-.171.072" transform="translate(-1.369 -1.532)" fill="#fff"/>
      <path id="패스_19606" data-name="패스 19606" d="M5.8,6.306,4.034,3.061a.137.137,0,0,0-.245,0L2.014,6.306a2.342,2.342,0,0,0-.3,1.15A2.237,2.237,0,0,0,3.905,9.734,2.237,2.237,0,0,0,6.1,7.456a2.342,2.342,0,0,0-.3-1.15" transform="translate(-0.658 1.593)" fill="#fff"/>
    </g>
  </g>
</svg>
