<svg xmlns="http://www.w3.org/2000/svg" xmlns:xlink="http://www.w3.org/1999/xlink" width="145.498" height="39" viewBox="0 0 145.498 39">
  <defs>
    <clipPath id="clip-path">
      <rect id="사각형_7198" data-name="사각형 7198" width="39" height="39" fill="none"/>
    </clipPath>
  </defs>
  <g id="그룹_34843" data-name="그룹 34843" transform="translate(-248 -33)">
    <g id="그룹_34841" data-name="그룹 34841" transform="translate(8.159 1.924)">
      <path id="패스_19532" data-name="패스 19532" d="M9.776,8.724h3V1.38a.078.078,0,0,0-.08-.08H9.856a.081.081,0,0,0-.08.08Z" transform="translate(294.818 39.408)" fill="#00192d"/>
      <path id="패스_19533" data-name="패스 19533" d="M10.8,1.3H7.971a.087.087,0,0,0-.085.08V18.292a1.118,1.118,0,0,0,1.121,1.115h5.234a.318.318,0,0,0,.233-.1l2.537-2.532a.083.083,0,0,0-.057-.142H10.89V1.379A.087.087,0,0,0,10.8,1.3" transform="translate(285.955 39.404)" fill="#00192d"/>
      <path id="패스_19534" data-name="패스 19534" d="M25.39,15.884h5.757a.341.341,0,0,0,.233-.092l2.532-2.414a.075.075,0,0,0-.057-.13H17.812V9.91h14.6a.079.079,0,0,0,.08-.076V2.361A1.087,1.087,0,0,0,31.375,1.3H16.856a.341.341,0,0,0-.233.092L14.092,3.8a.079.079,0,0,0,.057.135H29.429V7.274h-14.6a.081.081,0,0,0-.085.076v7.473a1.091,1.091,0,0,0,1.115,1.061h6.531v3.339H12.265a.081.081,0,0,0-.085.076v2.478a.085.085,0,0,0,.085.081H34.976a.085.085,0,0,0,.085-.081V19.3a.081.081,0,0,0-.085-.076H25.39Z" transform="translate(304.602 39.408)" fill="#00192d"/>
      <path id="패스_19535" data-name="패스 19535" d="M26.392,6.279v8a.084.084,0,0,0,.085.085h2.827a.087.087,0,0,0,.085-.085v-8h5.655v8a.088.088,0,0,0,.085.085h2.833a.087.087,0,0,0,.085-.085v-8h4.17a.322.322,0,0,0,.233-.1L44.99,3.645a.081.081,0,0,0-.063-.137H23.218a.332.332,0,0,0-.233.1L20.453,6.136a.083.083,0,0,0,.057.142Z" transform="translate(340.326 48.707)" fill="#00192d"/>
      <path id="패스_19536" data-name="패스 19536" d="M29.672,3.713c3.2,0,5.416,1.274,5.416,3.334,0,2.025-2.264,3.334-5.416,3.334-3.123,0-5.365-1.308-5.365-3.334,0-2.059,2.19-3.334,5.365-3.334m0,9.262c5.166,0,8.727-2.327,8.727-5.928,0-3.573-3.561-5.883-8.727-5.883-5.137,0-8.681,2.31-8.681,5.883,0,3.6,3.544,5.928,8.681,5.928" transform="translate(342.971 38.77)" fill="#00192d"/>
      <path id="패스_19537" data-name="패스 19537" d="M14.926,6.019v6a.085.085,0,0,0,.142.063l2.759-2.759a.332.332,0,0,0,.1-.233V3.971a1.117,1.117,0,0,0-1.115-1.115H11.695a.332.332,0,0,0-.233.1L8.7,5.712a.083.083,0,0,0,.057.142h6a.165.165,0,0,1,.165.165" transform="translate(289.668 46.007)" fill="#00192d"/>
      <path id="패스_19538" data-name="패스 19538" d="M13.966,1.013H11.133a.081.081,0,0,0-.08.082V24.926a.081.081,0,0,0,.08.082h2.833a.081.081,0,0,0,.08-.082V11.242H15.7a.34.34,0,0,0,.233-.093L18.46,8.724a.079.079,0,0,0-.057-.136H14.045V1.095a.081.081,0,0,0-.08-.082" transform="translate(300.034 38.063)" fill="#00192d"/>
      <path id="패스_19539" data-name="패스 19539" d="M26.551,7.581l.04.023,7.93,4.682a.086.086,0,0,0,.1-.017l1.883-1.923a.077.077,0,0,0-.017-.125L28.053,5.373v-1.3h7.868a.081.081,0,0,0,.08-.08V1.38a.078.078,0,0,0-.08-.08H17.182a.078.078,0,0,0-.08.08V3.991a.081.081,0,0,0,.08.08h7.874v1.3L25.01,5.4l-8.443,4.819a.084.084,0,0,0-.017.131l1.923,1.929a.1.1,0,0,0,.1.011Z" transform="translate(323.581 39.408)" fill="#00192d"/>
      <path id="패스_19540" data-name="패스 19540" d="M27.544,6.279v8a.083.083,0,0,0,.08.085h2.839a.083.083,0,0,0,.08-.085l.011-8h7.925a.322.322,0,0,0,.233-.1l2.537-2.537a.08.08,0,0,0-.057-.137h-22.4a.322.322,0,0,0-.233.1L16.018,6.136a.085.085,0,0,0,.063.142Z" transform="translate(321.08 48.707)" fill="#00192d"/>
    </g>
    <g id="그룹_34842" data-name="그룹 34842" transform="translate(0 -0.263)">
      <g id="BI" transform="translate(248 33.263)">
        <g id="그룹_20386" data-name="그룹 20386" transform="translate(0 0)" clip-path="url(#clip-path)">
          <path id="패스_19604" data-name="패스 19604" d="M18.774,37.548A18.774,18.774,0,1,0,0,18.771,18.778,18.778,0,0,0,18.774,37.548" transform="translate(0.956 0.045)" fill="#3cdc87"/>
          <g id="그룹_20660" data-name="그룹 20660" transform="translate(8.534 8.775)">
            <path id="패스_19605" data-name="패스 19605" d="M5.986,1.663,1.442,6.341a.247.247,0,0,0,.166.422H16.155a.249.249,0,0,1,.244.251V21.989a.238.238,0,0,0,.41.171l4.545-4.678a.455.455,0,0,0,.127-.319V1.777a.24.24,0,0,0-.238-.245H6.3a.429.429,0,0,0-.31.131" transform="translate(-1.369 -1.532)" fill="#fff"/>
            <path id="패스_19606" data-name="패스 19606" d="M9.1,8.991,5.91,3.122a.248.248,0,0,0-.443,0L2.256,8.991a4.236,4.236,0,0,0-.542,2.08,4.047,4.047,0,0,0,3.964,4.12,4.047,4.047,0,0,0,3.964-4.12A4.236,4.236,0,0,0,9.1,8.991" transform="translate(0.196 5.295)" fill="#fff"/>
          </g>
        </g>
      </g>
    </g>
  </g>
</svg>
