<svg id="그룹_35019" data-name="그룹 35019" xmlns="http://www.w3.org/2000/svg" xmlns:xlink="http://www.w3.org/1999/xlink" width="20" height="20" viewBox="0 0 20 20">
  <defs>
    <clipPath id="clip-path">
      <rect id="사각형_23412" data-name="사각형 23412" width="20" height="20" fill="none"/>
    </clipPath>
  </defs>
  <g id="그룹_35018" data-name="그룹 35018" clip-path="url(#clip-path)">
    <path id="패스_34975" data-name="패스 34975" d="M10,20A10,10,0,1,0,0,10,10,10,0,0,0,10,20" fill="#6464ff"/>
    <g id="그룹_35017" data-name="그룹 35017" transform="translate(-0.189 -0.388)">
      <path id="패스_34976" data-name="패스 34976" d="M28.556,52.7h0a.154.154,0,0,0,0-.291,4.664,4.664,0,0,1-2.781-3.08l-.009-.026a.147.147,0,0,0-.276,0l-.009.026a4.664,4.664,0,0,1-2.781,3.08.154.154,0,0,0,0,.291h0a4.664,4.664,0,0,1,2.781,3.081l.007.018a.147.147,0,0,0,.276,0l.006-.018A4.664,4.664,0,0,1,28.556,52.7" transform="translate(-18.411 -40.083)" fill="#fff"/>
      <path id="패스_34977" data-name="패스 34977" d="M25.154,25.366,22.639,27.88a.133.133,0,0,0,.094.226h8.045a.133.133,0,0,1,.133.133v8.045a.133.133,0,0,0,.226.094l2.514-2.514a.241.241,0,0,0,.07-.17V25.428a.133.133,0,0,0-.133-.133H25.324a.241.241,0,0,0-.17.071" transform="translate(-18.411 -20.606)" fill="#fff"/>
    </g>
  </g>
</svg>
