<svg xmlns="http://www.w3.org/2000/svg" xmlns:xlink="http://www.w3.org/1999/xlink" width="40.14" height="12" viewBox="0 0 40.14 12">
  <defs>
    <clipPath id="clip-path">
      <rect id="사각형_23635" data-name="사각형 23635" width="15.239" height="12" fill="none"/>
    </clipPath>
    <clipPath id="clip-path-2">
      <rect id="사각형_23636" data-name="사각형 23636" width="20.805" height="8" fill="none"/>
    </clipPath>
  </defs>
  <g id="그룹_35411" data-name="그룹 35411" transform="translate(-33 -276)">
    <g id="NFC_logo" transform="translate(33 276)">
      <g id="그룹_35399" data-name="그룹 35399" clip-path="url(#clip-path)">
        <path id="패스_35126" data-name="패스 35126" d="M15.239,3.478l-1.13,1.13a8.495,8.495,0,0,0-12.978,0L0,3.478a10.085,10.085,0,0,1,15.239,0"/>
        <path id="패스_35127" data-name="패스 35127" d="M58.189,75.332l-1.135,1.135a5.973,5.973,0,0,0-9.39,0L46.53,75.332a7.569,7.569,0,0,1,11.659,0" transform="translate(-44.816 -69.798)"/>
        <path id="패스_35128" data-name="패스 35128" d="M103.6,143.714l-1.145,1.146a3.32,3.32,0,0,0-5.585,0l-1.145-1.146a4.915,4.915,0,0,1,7.876,0" transform="translate(-92.291 -136.288)"/>
        <circle id="타원_2140" data-name="타원 2140" cx="1.286" cy="1.286" r="1.286" transform="translate(6.334 8.571)"/>
      </g>
    </g>
    <g id="NFC" transform="translate(52.335 278)">
      <g id="그룹_35401" data-name="그룹 35401" transform="translate(0 0)" clip-path="url(#clip-path-2)">
        <path id="패스_35129" data-name="패스 35129" d="M6.635,1.75V9.511H4.7L2.571,6.082a13.031,13.031,0,0,1-.825-1.6,5.426,5.426,0,0,1,.188,1.274V9.511H0V1.75H2.251L4.06,4.593a10.965,10.965,0,0,1,.819,1.49A11.248,11.248,0,0,1,4.7,4.047V1.75Z" transform="translate(0 -1.63)"/>
        <path id="패스_35130" data-name="패스 35130" d="M119.05,3.6V4.86h2.531V6.605H119.05V9.511h-2.32V1.75h5.612V3.6Z" transform="translate(-108.742 -1.63)"/>
        <path id="패스_35131" data-name="패스 35131" d="M209.337,4.918l2.178.131a3.179,3.179,0,0,1-1.055,2.189,3.622,3.622,0,0,1-4.768-.284,4.079,4.079,0,0,1-.972-2.889,4.491,4.491,0,0,1,.921-2.945,3.6,3.6,0,0,1,4.938-.267,3.515,3.515,0,0,1,.936,2.262l-2.223.12a1.713,1.713,0,0,0-.3-1.126.9.9,0,0,0-.7-.347q-1.126,0-1.126,2.263a3.477,3.477,0,0,0,.293,1.722.925.925,0,0,0,.821.455q.944,0,1.058-1.285" transform="translate(-190.71 0)"/>
      </g>
    </g>
  </g>
</svg>
