<svg xmlns="http://www.w3.org/2000/svg" width="285.445" height="292.572" viewBox="0 0 285.445 292.572">
    <defs>
        <clipPath id="uwbp96osxa">
            <path data-name="사각형 7411" style="fill:none" d="M0 0h50.545v19.392H0z"/>
        </clipPath>
        <clipPath id="nx8vyway0b">
            <path data-name="사각형 7410" style="fill:none" d="M0 0h101.046v103.741H0z"/>
        </clipPath>
        <clipPath id="xhfn54v4oc">
            <path data-name="사각형 7409" style="fill:none" d="M0 0h101.045v103.741H0z"/>
        </clipPath>
        <clipPath id="fdnliy27ud">
            <path data-name="사각형 7408" style="fill:none" d="M0 0h22.258v11.941H0z"/>
        </clipPath>
        <filter id="yhg5cpqbne" x="148.853" y="0" width="132.833" height="132.939" filterUnits="userSpaceOnUse">
            <feOffset dy="3"/>
            <feGaussianBlur stdDeviation="3" result="blur"/>
            <feFlood flood-opacity=".161"/>
            <feComposite operator="in" in2="blur"/>
            <feComposite in="SourceGraphic"/>
        </filter>
    </defs>
    <g data-name="main_img">
        <g data-name="그룹 21185">
            <g data-name="그룹 21174">
                <g data-name="그룹 21172">
                    <path data-name="패스 21179" d="M2261.15 873.723a20.038 20.038 0 0 1 0-18.363l6.31-12.247a20.042 20.042 0 0 0-6.977-26.042l-11.589-7.45a20.042 20.042 0 0 1-9.181-15.9l-.659-13.762a20.043 20.043 0 0 0-19.063-19.064l-13.762-.658a20.046 20.046 0 0 1-15.9-9.182l-7.451-11.59a20.043 20.043 0 0 0-26.041-6.977l-12.247 6.312a20.043 20.043 0 0 1-18.364 0l-12.247-6.312a20.044 20.044 0 0 0-26.042 6.977l-7.45 11.59a20.047 20.047 0 0 1-15.9 9.182l-13.762.658a20.043 20.043 0 0 0-19.064 19.064l-.658 13.762a20.046 20.046 0 0 1-9.182 15.9l-11.589 7.45a20.044 20.044 0 0 0-6.978 26.042l6.311 12.247a20.042 20.042 0 0 1 0 18.363l-6.311 12.247a20.043 20.043 0 0 0 6.978 26.042l11.589 7.45a20.045 20.045 0 0 1 9.182 15.9l.658 13.762a20.042 20.042 0 0 0 19.064 19.064l13.762.658a20.042 20.042 0 0 1 15.9 9.182l7.45 11.589a20.044 20.044 0 0 0 26.042 6.978l12.247-6.311a20.043 20.043 0 0 1 18.364 0l12.247 6.311a20.043 20.043 0 0 0 26.041-6.978l7.451-11.589a20.042 20.042 0 0 1 15.9-9.182l13.762-.658a20.043 20.043 0 0 0 19.063-19.064l.659-13.762a20.042 20.042 0 0 1 9.181-15.9l11.59-7.45a20.042 20.042 0 0 0 6.977-26.042z" transform="translate(-1984.245 -706.256)" style="fill:#0f1f2e"/>
                </g>
                <g data-name="그룹 21173">
                    <g data-name="패스 21179" style="fill:none">
                        <path d="M2247.666 866.284a19 19 0 0 1 0-17.411l5.983-11.612a19 19 0 0 0-6.615-24.691l-10.989-7.064a19.006 19.006 0 0 1-8.705-15.079l-.624-13.049a19 19 0 0 0-18.074-18.076l-13.049-.623a19.006 19.006 0 0 1-15.079-8.706l-7.064-10.989a19 19 0 0 0-24.692-6.616l-11.612 5.984a19 19 0 0 1-17.411 0l-11.613-5.984a19 19 0 0 0-24.691 6.616l-7.064 10.989a19.006 19.006 0 0 1-15.079 8.706l-13.049.623a19 19 0 0 0-18.076 18.076l-.623 13.049a19.006 19.006 0 0 1-8.706 15.079l-10.988 7.064a19 19 0 0 0-6.616 24.691l5.984 11.612a19.006 19.006 0 0 1 0 17.411l-5.984 11.616a19 19 0 0 0 6.616 24.691l10.989 7.064a19 19 0 0 1 8.706 15.079l.623 13.048a19 19 0 0 0 18.076 18.075l13.049.624a19 19 0 0 1 15.079 8.706l7.064 10.989a19 19 0 0 0 24.692 6.616l11.612-5.984a19 19 0 0 1 17.411 0l11.612 5.984a19 19 0 0 0 24.692-6.616l7.064-10.989a19 19 0 0 1 15.079-8.706l13.049-.624a19 19 0 0 0 18.074-18.075l.624-13.048a19 19 0 0 1 8.705-15.079l10.989-7.064a19 19 0 0 0 6.615-24.691z" style="stroke:none" transform="translate(-1977.282 -699.293)"/>
                        <path d="M2099.43 982.901c2.725 0 5.341-.636 7.776-1.891l11.612-5.984a21.095 21.095 0 0 1 9.622-2.334c3.332 0 6.66.807 9.622 2.334l11.612 5.984a17.057 17.057 0 0 0 7.778 1.891c2.801 0 5.587-.7 8.057-2.023a17.022 17.022 0 0 0 6.258-5.788l7.064-10.988a21.043 21.043 0 0 1 16.666-9.622l13.049-.624a16.967 16.967 0 0 0 11.211-4.96 16.97 16.97 0 0 0 4.961-11.213l.624-13.048c.324-6.77 3.92-13.001 9.622-16.666l10.988-7.064a16.97 16.97 0 0 0 7.23-9.903 16.97 16.97 0 0 0-1.31-12.19l-5.984-11.612a21.04 21.04 0 0 1 0-19.244l5.983-11.612a16.97 16.97 0 0 0 1.31-12.19 16.97 16.97 0 0 0-7.229-9.903l-10.988-7.064a21.043 21.043 0 0 1-9.622-16.665l-.624-13.049a16.97 16.97 0 0 0-4.96-11.212 16.97 16.97 0 0 0-11.212-4.961l-13.05-.623c-6.77-.325-13-3.922-16.665-9.622l-7.064-10.99a17.019 17.019 0 0 0-6.259-5.787 17.116 17.116 0 0 0-8.057-2.023c-2.687 0-5.376.654-7.777 1.891l-11.612 5.984a21.096 21.096 0 0 1-9.622 2.334c-3.332 0-6.66-.807-9.622-2.334l-11.613-5.984a17.05 17.05 0 0 0-7.776-1.891c-2.8 0-5.587.7-8.057 2.023a17.021 17.021 0 0 0-6.259 5.788l-7.063 10.989a21.046 21.046 0 0 1-16.666 9.622l-13.049.623a16.971 16.971 0 0 0-11.212 4.961 16.969 16.969 0 0 0-4.961 11.212l-.623 13.049c-.324 6.77-3.921 13-9.623 16.665l-10.988 7.064a16.97 16.97 0 0 0-7.23 9.903 16.97 16.97 0 0 0 1.31 12.19l5.985 11.612a21.045 21.045 0 0 1 0 19.244l-5.985 11.612a16.97 16.97 0 0 0-1.31 12.19 16.969 16.969 0 0 0 7.23 9.903l10.989 7.064a21.043 21.043 0 0 1 9.622 16.666l.623 13.048a16.969 16.969 0 0 0 4.96 11.212 16.97 16.97 0 0 0 11.213 4.96l13.049.625c6.77.323 13 3.92 16.666 9.622l7.063 10.988a17.02 17.02 0 0 0 6.26 5.788 17.115 17.115 0 0 0 8.056 2.023m0 2a19.002 19.002 0 0 1-15.998-8.73l-7.064-10.988a19.004 19.004 0 0 0-15.078-8.706l-13.049-.623c-9.783-.467-17.609-8.293-18.076-18.076l-.623-13.048a19.005 19.005 0 0 0-8.706-15.079l-10.989-7.064c-8.238-5.296-11.102-15.986-6.616-24.691l5.985-11.612a19.006 19.006 0 0 0 0-17.412l-5.985-11.612c-4.486-8.706-1.622-19.395 6.616-24.691l10.989-7.064a19.006 19.006 0 0 0 8.706-15.078l.623-13.05c.467-9.782 8.293-17.607 18.076-18.075l13.049-.623a19.006 19.006 0 0 0 15.078-8.706l7.064-10.989c5.296-8.237 15.985-11.102 24.69-6.615l11.613 5.984a19.004 19.004 0 0 0 17.412 0l11.612-5.984c8.706-4.487 19.396-1.623 24.691 6.615l7.065 10.99a19.006 19.006 0 0 0 15.078 8.705l13.05.623c9.781.468 17.607 8.293 18.074 18.076l.624 13.049a19.006 19.006 0 0 0 8.705 15.078l10.989 7.064c8.238 5.296 11.102 15.985 6.615 24.691l-5.983 11.612a19.001 19.001 0 0 0 0 17.412l5.983 11.612c4.487 8.705 1.623 19.395-6.615 24.691l-10.989 7.064a19.003 19.003 0 0 0-8.705 15.08l-.624 13.047c-.467 9.783-8.293 17.609-18.075 18.076l-13.049.623a19.004 19.004 0 0 0-15.078 8.706l-7.065 10.989c-5.296 8.238-15.986 11.102-24.691 6.616l-11.612-5.984a19.002 19.002 0 0 0-17.412 0l-11.611 5.984a18.933 18.933 0 0 1-8.694 2.113z" style="fill:#3cdc87;stroke:none" transform="translate(-1977.282 -699.293)"/>
                    </g>
                </g>
            </g>
            <g data-name="그룹 21182">
                <g data-name="패스 8797" style="fill:#29fe94">
                    <path d="M2.623 10.5c.67-1.337 1.285-2.885 1.403-4.23a9.96 9.96 0 0 0-.346-3.578c.843.241 1.876.452 2.912.452.401 0 .786-.032 1.145-.095 1.151-.201 2.426-.664 3.496-1.12-.567 1.21-1.145 2.66-1.284 3.782-.153 1.234.173 2.69.53 3.825a10.92 10.92 0 0 0-2.981-.433c-.328 0-.657.017-.976.05-1.296.135-2.692.71-3.899 1.347z" style="stroke:none" transform="rotate(135 9.13 35.667)"/>
                    <path d="M9.64 3.463c-.587.19-1.183.349-1.752.448a7.536 7.536 0 0 1-1.296.108c-.601 0-1.2-.065-1.767-.165.109.746.152 1.584.073 2.492-.069.784-.285 1.618-.578 2.44a9.224 9.224 0 0 1 2.11-.503c.35-.036.71-.055 1.068-.055.623 0 1.216.056 1.767.144-.191-.905-.295-1.877-.185-2.769.082-.656.292-1.398.56-2.14M13.223 0s-2.137 3.663-2.405 5.819c-.267 2.156 1.177 5.238 1.177 5.238s-2.445-1.34-5.382-1.033C3.675 10.33 0 13.222 0 13.222s2.9-4.128 3.154-7.029C3.408 3.293 2.136 1.2 2.136 1.2s2.988 1.419 5.45.988C10.047 1.756 13.222 0 13.222 0z" style="fill:#0f1f2e;stroke:none" transform="rotate(135 9.13 35.667)"/>
                </g>
                <g data-name="패스 8798" style="fill:#29fe94">
                    <path d="M26.107 26.123c-3.221-1.953-8.023-4.55-11.23-4.859a12.623 12.623 0 0 0-1.202-.055c-3.278 0-6.828 1.142-8.864 1.919.617-2.433 1.542-6.898 1.043-10.264-.472-3.185-2.546-7.97-3.894-10.842C4.898 3.51 9.88 5.825 13.082 6.19c.536.06 1.116.092 1.722.092 2.786 0 5.716-.638 7.503-1.11-.674 2.053-1.604 5.707-1.206 9.36.371 3.402 3.028 8.323 5.006 11.59z" style="stroke:none" transform="rotate(-133 21.23 21.776)"/>
                    <path d="M3.759 3.872c1.228 2.808 2.583 6.316 2.96 8.863.424 2.86-.128 6.449-.69 9.032 2.115-.702 4.962-1.433 7.646-1.433.443 0 .875.02 1.286.06 2.126.204 5.074 1.33 8.772 3.352-1.626-2.987-3.213-6.472-3.501-9.118-.331-3.033.214-6.061.803-8.246-1.77.396-4.04.776-6.23.776-.64 0-1.253-.033-1.822-.098-2.607-.298-6.306-1.816-9.224-3.188M0 0s8.625 4.8 13.182 5.321c4.556.52 10.547-1.475 10.547-1.475S21.4 9.204 21.971 14.438c.571 5.234 7.038 14.589 7.038 14.589s-9.281-6.417-14.216-6.892C9.86 21.661 3.49 24.623 3.49 24.623s2.184-7.011 1.5-11.631C4.302 8.372 0 0 0 0z" style="fill:#0f1f2e;stroke:none" transform="rotate(-133 21.23 21.776)"/>
                </g>
                <g data-name="그룹 20700">
                    <g data-name="그룹 20699" transform="rotate(-25 275.463 -27.16)" style="clip-path:url(#uwbp96osxa)">
                        <path data-name="패스 20573" d="M30.517 3.557a3.47 3.47 0 0 1-6.533-1.629 3.434 3.434 0 0 1 .086-.756L20.9 0S11.488 8.149 0 7.03l10.45 5.655s15.619 6.033 27.6-6.343z" transform="translate(11.852 4.627)" style="fill:#fff"/>
                        <path data-name="패스 20574" d="M31.382 19.392a28.807 28.807 0 0 1-9.312-1.48l-10.524-5.688a.641.641 0 0 1-.309-.754.659.659 0 0 1 .677-.454C22.999 12.082 32.237 4.22 32.33 4.139a.641.641 0 0 1 .646-.117l3.169 1.174a.644.644 0 0 1 .406.744 2.824 2.824 0 0 0 5.25 1.94.651.651 0 0 1 .792-.3l7.532 2.786a.646.646 0 0 1 .239 1.053 25.727 25.727 0 0 1-18.982 7.973m-16.798-6.989 8.024 4.341c.077.024 14.689 5.463 26.125-5.52l-6.1-2.255a4.115 4.115 0 0 1-7.446-2.414 4.1 4.1 0 0 1 .014-.333l-2.323-.863c-1.57 1.275-8.958 6.843-18.294 7.044"/>
                        <path data-name="패스 20575" d="M30.969 19.369a29.459 29.459 0 0 1-7.554-.914l-11.864-6.227a.644.644 0 0 1-.318-.754.635.635 0 0 1 .68-.457C22.999 12.082 32.237 4.22 32.33 4.139a.638.638 0 0 1 .644-.117l3.17 1.174a.641.641 0 0 1 .4.744A2.825 2.825 0 0 0 41.8 7.882a.651.651 0 0 1 .792-.3l7.53 2.786a.645.645 0 0 1 .246 1.048 26.073 26.073 0 0 1-19.4 7.956m-7.07-2.1c.041 0 14.428 4.122 24.841-6.04L42.635 8.97a4.113 4.113 0 0 1-7.444-2.414 4.1 4.1 0 0 1 .014-.333l-2.329-.864c-1.57 1.272-8.922 6.815-18.227 7.042z"/>
                        <path data-name="패스 20576" d="m19.449 6.521-6.207-2.1A3.468 3.468 0 1 1 6.7 2.21L.158 0c-1.088 7.064 3.8 9.238 3.8 9.238l19 7.958a12.293 12.293 0 0 1-3.509-10.675" transform="translate(.643 .642)" style="fill:#5bfead"/>
                        <path data-name="패스 20577" d="M23.6 18.482a.665.665 0 0 1-.249-.05l-19-7.958C4.289 10.445-.984 8.009.163.544a.647.647 0 0 1 .3-.452.653.653 0 0 1 .541-.06l6.539 2.21a.644.644 0 0 1 .383.87 2.824 2.824 0 1 0 5.33 1.8.649.649 0 0 1 .316-.412.643.643 0 0 1 .516-.045l6.207 2.1a.645.645 0 0 1 .424.746 11.537 11.537 0 0 0 3.334 10.082.645.645 0 0 1-.455 1.1M1.342 1.505c-.56 5.856 3.353 7.708 3.526 7.787l16.583 6.946a12.915 12.915 0 0 1-2.081-8.639l-5.081-1.716a4.113 4.113 0 0 1-7.766-2.626z"/>
                    </g>
                </g>
                <g data-name="gun">
                    <g data-name="그룹 20698" transform="rotate(-3 657.284 -1086.905)" style="clip-path:url(#nx8vyway0b)">
                        <path data-name="패스 20549" d="M10.289 1.256 0 20.135h16.471L26.726 0z" transform="translate(17.351 17.618)" style="fill:#acacac"/>
                        <g data-name="그룹 20697">
                            <g data-name="그룹 20696" style="clip-path:url(#xhfn54v4oc)">
                                <path data-name="패스 20550" d="M17.007 21.211H.536a.535.535 0 0 1-.469-.794L10.354 1.539a.534.534 0 0 1 .429-.278L27.222 0a.5.5 0 0 1 .487.238.528.528 0 0 1 .03.541L17.485 20.918a.533.533 0 0 1-.478.293M1.441 20.138h15.238l9.672-18.99-15.194 1.161z" transform="translate(16.814 17.079)" style="fill:#0f1f2e"/>
                                <path data-name="패스 20551" d="M.683 25.169 0 20.135h16.471L26.726 0l5.532 1.6-11.669 23.569z" transform="translate(17.351 17.618)" style="fill:#fff"/>
                                <path data-name="패스 20552" d="M21.125 26.242H1.219a.537.537 0 0 1-.531-.464l-.683-5.034a.536.536 0 0 1 .531-.61h16.143L26.784.293a.538.538 0 0 1 .628-.272l5.532 1.6a.536.536 0 0 1 .332.753l-11.67 23.569a.535.535 0 0 1-.481.3M1.688 25.169h19.1L32.03 2.475l-4.492-1.3-10.052 19.739a.536.536 0 0 1-.478.293H1.151z" transform="translate(16.815 17.081)" style="fill:#0f1f2e"/>
                                <path data-name="패스 20553" d="m0 0 53.415 37.444 19.908-.685L19.906 0z" transform="translate(18.034 42.787)" style="fill:#219d5b"/>
                                <path data-name="패스 20554" d="M53.952 38.519a.527.527 0 0 1-.308-.1L.229.976A.537.537 0 0 1 .536 0h19.907a.54.54 0 0 1 .3.094l53.415 36.76a.535.535 0 0 1-.286.977l-19.906.687zM2.236 1.073 54.112 37.44l18.1-.624L20.275 1.073z" transform="translate(17.497 42.25)" style="fill:#0f1f2e"/>
                                <path data-name="패스 20555" d="m53.415 60.326 9.153-22.194L11.67 0 0 23.567z" transform="translate(37.941 19.22)" style="fill:#29fe94"/>
                                <path data-name="패스 20556" d="M53.954 61.4a.529.529 0 0 1-.3-.094L.233 24.547a.535.535 0 0 1-.177-.68L11.725.3a.536.536 0 0 1 .8-.192l50.9 38.133a.533.533 0 0 1 .175.632l-9.153 22.2a.53.53 0 0 1-.343.311.505.505 0 0 1-.152.021M1.224 23.926 53.71 60.045l8.74-21.2L12.4 1.353z" transform="translate(37.403 18.682)" style="fill:#0f1f2e"/>
                                <path data-name="패스 20557" d="M6.625.592 13.5 0 8.237 32.055 0 33.2z" transform="translate(44.633 61.767)" style="fill:#219d5b"/>
                                <path data-name="패스 20558" d="M.537 34.275a.532.532 0 0 1-.392-.169.538.538 0 0 1-.135-.474L6.636 1.025A.54.54 0 0 1 7.115.6L13.99 0a.525.525 0 0 1 .441.17.54.54 0 0 1 .136.452L9.3 32.681a.539.539 0 0 1-.455.445L.61 34.271a.416.416 0 0 1-.073 0M7.608 1.632 1.214 33.1l7.095-.985 5.086-30.983z" transform="translate(44.096 61.228)" style="fill:#0f1f2e"/>
                                <path data-name="패스 20559" d="M17.847 8.924 5.263 0 0 32.055l13.5 8.467z" transform="translate(52.87 61.767)" style="fill:#29fe94"/>
                                <path data-name="패스 20560" d="M14.036 41.6a.54.54 0 0 1-.285-.083L.252 33.046a.538.538 0 0 1-.245-.541L5.27.45A.536.536 0 0 1 6.11.1l12.584 8.923a.534.534 0 0 1 .222.509l-4.347 31.6a.539.539 0 0 1-.3.414.524.524 0 0 1-.228.052M1.124 32.326l12.494 7.837 4.19-30.455L6.19 1.472z" transform="translate(52.334 61.231)" style="fill:#0f1f2e"/>
                                <path data-name="패스 20561" d="M0 1.143 8.237 0l13.5 8.466-8.008.914z" transform="translate(44.633 93.823)" style="fill:#219d5b"/>
                                <path data-name="패스 20562" d="M58.363 103.742a.535.535 0 0 1-.276-.076l-13.729-8.238a.536.536 0 0 1 .2-.992l8.239-1.143a.507.507 0 0 1 .36.076l13.5 8.467a.538.538 0 0 1-.225.989l-8.009.914h-.06m-12.149-8.453 12.269 7.367 6.3-.721-12.031-7.546z"/>
                                <path data-name="패스 20563" d="m20.56 0-7.781.787a3.985 3.985 0 0 1 .036.492 3.774 3.774 0 0 1-7.538.266L0 2.079s3.366 21.315 20.56 27.247h14.449S20.069 17.6 20.56 0" transform="translate(.537 .535)" style="fill:#fff"/>
                                <path data-name="패스 20564" d="M35.546 30.401H21.101a.521.521 0 0 1-.175-.03C3.624 24.401.042 2.917.008 2.701a.535.535 0 0 1 .477-.618l5.276-.534a.547.547 0 0 1 .4.123.526.526 0 0 1 .189.373 3.237 3.237 0 0 0 6.465-.23 3.147 3.147 0 0 0-.03-.421.534.534 0 0 1 .478-.6l7.78-.793a.566.566 0 0 1 .419.14.539.539 0 0 1 .172.409c-.477 17.114 14.1 28.773 14.242 28.888a.536.536 0 0 1-.331.959m-14.358-1.071h12.92c-3.434-3.131-13.672-13.695-13.556-28.195l-6.664.67v.01a4.31 4.31 0 0 1-8.534.853l-4.18.424c.684 3.37 4.943 20.972 20.015 26.234"/>
                                <path data-name="패스 20565" d="m20.56 0-7.781.787a3.985 3.985 0 0 1 .036.492 3.774 3.774 0 0 1-7.538.266L0 2.079s3.366 21.315 20.56 27.247h14.449S20.069 17.6 20.56 0" transform="translate(.537 .535)" style="fill:#fff"/>
                                <path data-name="패스 20566" d="M35.546 30.401H21.101a.521.521 0 0 1-.175-.03C3.624 24.401.042 2.917.008 2.701a.535.535 0 0 1 .477-.618l5.276-.534a.547.547 0 0 1 .4.123.526.526 0 0 1 .189.373 3.237 3.237 0 0 0 6.465-.23 3.147 3.147 0 0 0-.03-.421.534.534 0 0 1 .478-.6l7.78-.793a.566.566 0 0 1 .419.14.539.539 0 0 1 .172.409c-.477 17.114 14.1 28.773 14.242 28.888a.536.536 0 0 1-.331.959m-14.358-1.071h12.92c-3.434-3.131-13.672-13.695-13.556-28.195l-6.664.67v.01a4.31 4.31 0 0 1-8.534.853l-4.18.424c.684 3.37 4.943 20.972 20.015 26.234"/>
                                <g data-name="그룹 20695" style="opacity:.76;isolation:isolate">
                                    <g data-name="그룹 20694">
                                        <g data-name="그룹 20693" transform="translate(.537 .535)" style="clip-path:url(#fdnliy27ud)">
                                            <path data-name="패스 20567" d="M22.259 11.01A31.451 31.451 0 0 1 20.56 0l-7.781.787a3.725 3.725 0 0 1 .036.492 3.773 3.773 0 0 1-7.537.268L0 2.081a43.782 43.782 0 0 0 3.112 9.859z" style="fill:#29fe94"/>
                                        </g>
                                    </g>
                                </g>
                                <path data-name="패스 20568" d="M.537 1.179A.537.537 0 0 1 .5.107L1.926 0A.533.533 0 0 1 2.5.5a.539.539 0 0 1-.5.575l-1.427.1H.537" transform="translate(3.55 11.843)" style="fill:#0f1f2e"/>
                                <path data-name="패스 20569" d="M.537 1.682A.537.537 0 0 1 .5.611L2.881.436a.531.531 0 0 1 .574.5.539.539 0 0 1-.5.575l-2.378.17h-.04m5.956-.436A.537.537 0 0 1 6.454.174L8.836 0a.542.542 0 0 1 .574.5.536.536 0 0 1-.5.574l-2.381.173h-.04" transform="translate(8.55 10.975)" style="fill:#0f1f2e"/>
                                <path data-name="패스 20570" d="M.537 1.176A.537.537 0 0 1 .5.1L1.925 0A.537.537 0 1 1 2 1.072l-1.427.1H.537" transform="translate(20.462 10.608)" style="fill:#0f1f2e"/>
                                <path data-name="패스 20571" d="M35.545 30.4H21.1a.521.521 0 0 1-.175-.03C3.623 24.4.041 2.916.007 2.7a.535.535 0 0 1 .477-.618l5.276-.534a.547.547 0 0 1 .4.123.526.526 0 0 1 .189.373 3.237 3.237 0 0 0 6.465-.23 3.147 3.147 0 0 0-.03-.421.534.534 0 0 1 .478-.6L21.042 0a.566.566 0 0 1 .419.14.539.539 0 0 1 .172.409c-.477 17.114 14.1 28.773 14.242 28.888a.536.536 0 0 1-.331.959m-14.358-1.071h12.92C30.672 26.194 20.434 15.63 20.55 1.13l-6.664.67v.01a4.31 4.31 0 0 1-8.534.853l-4.18.424c.684 3.37 4.943 20.972 20.015 26.234" transform="translate(.001 .001)" style="fill:#0f1f2e"/>
                                <path data-name="패스 20572" d="M1.9 2.488a1.562 1.562 0 0 1 .836-.764 1.577 1.577 0 0 1 1.095.066 2.406 2.406 0 0 1 .894.638 2.649 2.649 0 0 1 .6 1.122l1.331-.133a5.345 5.345 0 0 0-.472-1.2 4.1 4.1 0 0 0-.632-.856 4.134 4.134 0 0 0-.498-.425 6.756 6.756 0 0 0-.59-.4 4.9 4.9 0 0 0-.612-.32A2.378 2.378 0 0 0 3.284.04a2.7 2.7 0 0 0-1.59.2 2.754 2.754 0 0 0-1.215 1.2A3.322 3.322 0 0 0 0 3.2a3.847 3.847 0 0 0 .494 1.73 2.956 2.956 0 0 0 .372.519 5.833 5.833 0 0 0 .505.508q.277.245.561.449a4.052 4.052 0 0 0 .545.338 3.111 3.111 0 0 0 .96.332 3.429 3.429 0 0 0 1.136-.019l-.425-1.451a1.3 1.3 0 0 1-.537.023 2.326 2.326 0 0 1-.537-.157 2.93 2.93 0 0 1-.511-.293 2.768 2.768 0 0 1-.435-.386 1.728 1.728 0 0 1-.3-.459 2.058 2.058 0 0 1-.162-1.211 1.852 1.852 0 0 1 .234-.635M12 8.34a3.167 3.167 0 0 0-.087-1.281 3.8 3.8 0 0 0-.613-1.222 5.152 5.152 0 0 0-1.119-1.1 4.629 4.629 0 0 0-1.334-.713A2.742 2.742 0 0 0 7.636 3.9a2.173 2.173 0 0 0-1.056.436 3.226 3.226 0 0 0-.84.995 3.688 3.688 0 0 0-.46 1.277 3.015 3.015 0 0 0 .077 1.279 3.627 3.627 0 0 0 .6 1.209 5.214 5.214 0 0 0 1.116 1.1 4.758 4.758 0 0 0 1.337.718 2.8 2.8 0 0 0 1.226.139 2.254 2.254 0 0 0 1.066-.434 3.143 3.143 0 0 0 .85-.992A3.526 3.526 0 0 0 12 8.34m-1.918.2a1.526 1.526 0 0 1-1.042.826 1.6 1.6 0 0 1-1.272-.352 1.989 1.989 0 0 1-.8-1.183 1.916 1.916 0 0 1 .245-1.415 1.715 1.715 0 0 1 .454-.532 1.5 1.5 0 0 1 .574-.273 1.428 1.428 0 0 1 .635.016 1.8 1.8 0 0 1 .65.316 2.029 2.029 0 0 1 .509.541 1.935 1.935 0 0 1 .27.654 2.153 2.153 0 0 1 .019.711 1.927 1.927 0 0 1-.238.693m8.387 2.491-1.456-1.078-1.91 3.345a.732.732 0 0 1-.66.435 1.386 1.386 0 0 1-.8-.3 1.544 1.544 0 0 1-.547-.7.958.958 0 0 1 .1-.851l1.909-3.346-1.455-1.07-1.97 3.452a2.169 2.169 0 0 0-.295.944 2.378 2.378 0 0 0 .139.956 3.461 3.461 0 0 0 .551.926 5.006 5.006 0 0 0 .909.85 4.617 4.617 0 0 0 1.055.6 2.617 2.617 0 0 0 .972.2 1.728 1.728 0 0 0 .84-.232 1.793 1.793 0 0 0 .647-.684zm4.745 6.112a2.033 2.033 0 0 0 .112-1.833 4.563 4.563 0 0 0-1.63-1.891l-2.31-1.707-2.971 5.2 1.445 1.068.9-1.584 1.029.76a4.217 4.217 0 0 0 1.09.6 2.69 2.69 0 0 0 .977.169 1.729 1.729 0 0 0 .791-.228 1.507 1.507 0 0 0 .554-.564m-1.4-1.072a.648.648 0 0 1-.5.313 1.126 1.126 0 0 1-.817-.289l-1.093-.809.805-1.378 1.11.82a1.422 1.422 0 0 1 .551.693.786.786 0 0 1-.041.653m6.955 6.289a3.555 3.555 0 0 0 .449-1.284 3.173 3.173 0 0 0-.087-1.282 3.845 3.845 0 0 0-.608-1.222 5.152 5.152 0 0 0-1.119-1.1 4.629 4.629 0 0 0-1.334-.713 2.765 2.765 0 0 0-1.216-.126 2.186 2.186 0 0 0-1.056.436 3.224 3.224 0 0 0-.84.995 3.684 3.684 0 0 0-.459 1.282 3.01 3.01 0 0 0 .077 1.278 3.647 3.647 0 0 0 .6 1.211 5.144 5.144 0 0 0 1.116 1.095 4.738 4.738 0 0 0 1.337.718 2.8 2.8 0 0 0 1.226.139 2.259 2.259 0 0 0 1.066-.434 3.143 3.143 0 0 0 .85-.992M27.3 21.273a1.521 1.521 0 0 1-1.04.826 1.6 1.6 0 0 1-1.272-.352 1.989 1.989 0 0 1-.8-1.183 1.916 1.916 0 0 1 .245-1.415 1.748 1.748 0 0 1 .454-.532 1.5 1.5 0 0 1 .574-.273 1.428 1.428 0 0 1 .635.016 1.821 1.821 0 0 1 .65.316 2.029 2.029 0 0 1 .509.541 1.935 1.935 0 0 1 .27.654 2.154 2.154 0 0 1 .019.711 1.9 1.9 0 0 1-.239.693m7.115 1.55-1.786 3.128-.345-4.7-1.414-1.053-2.969 5.206 1.437 1.062 1.845-3.234.359 4.864 1.338.99 2.971-5.206z" transform="translate(51.296 34.837)" style="fill:#0f1f2e"/>
                            </g>
                        </g>
                    </g>
                </g>
            </g>
        </g>
    </g>
    <g data-name="그룹 21131">
        <g style="filter:url(#yhg5cpqbne)">
            <path data-name="패스 21200" d="m62.771 1.77 4.473 9.764 10.369-2.8 1.06 10.687 10.715.721L86.92 30.6l9.9 4.161-5.728 9.085 8.013 7.15-8.365 6.729L96 67.09l-10.1 3.651 1.932 10.564-10.738.174L75.487 92.1l-10.212-3.324L60.31 98.3l-8.581-6.458-7.788 7.4-6.019-8.894-9.767 4.466-2.8-10.367-10.691 1.047.713-10.716L4.927 72.3l4.154-9.9L0 56.666l7.145-8.018-6.727-8.372 9.361-5.264L6.135 24.91 16.7 22.971l-.166-10.738 10.62 1.6 3.329-10.21 9.527 4.958L46.472 0l7.4 7.783z" transform="matrix(.974 -.172 .172 .974 157.07 22.648)" style="fill:#ff83e6"/>
        </g>
        <g data-name="그룹 21130">
            <path data-name="패스 21201" d="m6.9 8.83.669-2.385 6.513 1.827A7.721 7.721 0 0 1 11 13.127a6.293 6.293 0 0 1-5.569.733 7.245 7.245 0 0 1-4.516-3.3 6.761 6.761 0 0 1-.6-5.491A6.533 6.533 0 0 1 3.7.768 7.556 7.556 0 0 1 9.337.351a6.85 6.85 0 0 1 4.943 4.672l-3.172.654a3.428 3.428 0 0 0-2.532-2.61 3.979 3.979 0 0 0-3.074.3 4.021 4.021 0 0 0-1.937 2.6 4.345 4.345 0 0 0 .235 3.32 3.837 3.837 0 0 0 2.5 1.907 3.362 3.362 0 0 0 4.017-1.406z" style="fill:#f9f9f9" transform="rotate(-5 606.212 -2237.438)"/>
            <path data-name="패스 21202" d="m4.535 8.177-.824 2.936 5.559 1.56-.72 2.569L0 12.843 3.6 0l8.55 2.4-.72 2.568-5.557-1.561-.638 2.275 5.192 1.456-.7 2.5z" transform="rotate(-5 633.653 -2400.57)" style="fill:#f9f9f9"/>
            <path data-name="패스 21203" d="M0 2.789.782 0l10.165 2.852-.782 2.789-3.523-.988-2.821 10.054L.7 13.832 3.523 3.778z" transform="rotate(-5 658.534 -2545.497)" style="fill:#f9f9f9"/>
        </g>
        <text transform="rotate(11.98 -266.39 1052.707)" style="font-size:15px;font-family:Montserrat-ExtraBold,Montserrat;font-weight:800"><tspan x="-27.855" y="0">STAMP</tspan></text>
    </g>
</svg>
