<svg xmlns="http://www.w3.org/2000/svg" xmlns:xlink="http://www.w3.org/1999/xlink" width="24" height="24" viewBox="0 0 24 24">
  <defs>
    <clipPath id="clip">
      <use xlink:href="#fill"/>
    </clipPath>
    <clipPath id="clip-2">
      <use xlink:href="#fill-2"/>
    </clipPath>
  </defs>
  <g id="icon_gas" transform="translate(-75 -295)">
    <rect id="사각형_4080" data-name="사각형 4080" width="24" height="24" transform="translate(75 295)" fill="none"/>
    <g id="그룹_14046" data-name="그룹 14046" transform="translate(-424.55 -66.2)">
      <g id="합치기_45" data-name="합치기 45" transform="translate(502.601 366.527)" fill="none">
        <path d="M5.38,15.9.68,11.2a2,2,0,0,1,0-2.829l4.6-4.6A2,2,0,0,1,5.329.987L5.637.679a2,2,0,0,1,2.829,0l.7.7L9.686.853a1.853,1.853,0,0,1,2.615.1l1.359,1.359a1.853,1.853,0,0,1,.1,2.614l-.522.523,1.612,1.612c.571.572.591,1.549.624,2.758s.133,1.275-.332,1.827c0,.015-.566.617-.774.844a1.51,1.51,0,0,1-1.05.46,1.056,1.056,0,0,1-.759-.3l-.553-.553-3.8,3.8a2,2,0,0,1-2.828,0Z" stroke="none"/>
        <path d="M 6.794440269470215 15.48890018463135 C 7.061270236968994 15.48890018463135 7.312020301818848 15.38499069213867 7.500890254974365 15.19589042663574 L 12.00915050506592 10.68764019012451 L 13.26737022399902 11.94628047943115 C 13.27110004425049 11.94844055175781 13.2889404296875 11.95460033416748 13.32089996337891 11.95460033416748 C 13.4033670425415 11.95460033416748 13.53245544433594 11.9134635925293 13.65233993530273 11.79906940460205 C 13.71826839447021 11.72744369506836 13.81196784973145 11.62705039978027 13.91152000427246 11.52042007446289 C 14.02757453918457 11.39610862731934 14.2047700881958 11.20630836486816 14.30086517333984 11.1005334854126 L 14.38077068328857 11.00579071044922 C 14.45690727233887 10.91551208496094 14.49187088012695 10.86781883239746 14.50759887695312 10.84424591064453 C 14.51393508911133 10.76182174682617 14.5051908493042 10.56051445007324 14.497389793396 10.38091087341309 C 14.49116039276123 10.23757076263428 14.4834098815918 10.05917072296143 14.47766017913818 9.850300788879395 L 14.47657012939453 9.809600830078125 C 14.45246028900146 8.908120155334473 14.42967987060547 8.056640625 14.1464900970459 7.773010730743408 L 11.82810020446777 5.454610347747803 L 13.05659008026123 4.223990440368652 C 13.35851001739502 3.922070503234863 13.31149005889893 3.383440494537354 12.95219039916992 3.023710489273071 L 11.59362030029297 1.665140509605408 C 11.40110015869141 1.472850561141968 11.1471700668335 1.362570524215698 10.8969202041626 1.362570524215698 C 10.75720024108887 1.362570524215698 10.55634021759033 1.396880507469177 10.39291000366211 1.560310482978821 L 9.162899971008301 2.790310621261597 L 7.75829029083252 1.385710477828979 C 7.569340229034424 1.196760535240173 7.318170070648193 1.092700481414795 7.051050186157227 1.092700481414795 C 6.78393030166626 1.092700481414795 6.532760143280029 1.196760535240173 6.344840049743652 1.384670495986938 L 6.036010265350342 1.694410562515259 C 5.651870250701904 2.078550577163696 5.641770362854004 2.689420461654663 6.013030052185059 3.085110425949097 L 6.675800323486328 3.791510581970215 L 1.386610269546509 9.080710411071777 C 0.9966302514076233 9.470680236816406 0.9966302514076233 10.10522079467773 1.386610269546509 10.49519062042236 L 6.087310314178467 15.19589042663574 C 6.276260375976562 15.384840965271 6.527390480041504 15.48890018463135 6.794440269470215 15.48890018463135 M 6.794440269470215 16.48890113830566 C 6.282680034637451 16.48890113830566 5.770800113677979 16.29360008239746 5.380200386047363 15.903000831604 L 0.6795002818107605 11.20230007171631 C -0.1016997471451759 10.42110061645508 -0.1016997471451759 9.154800415039062 0.6795002818107605 8.373600959777832 L 5.283760070800781 3.769340515136719 C 4.548020362854004 2.985170602798462 4.563050270080566 1.753150463104248 5.328900337219238 0.9873005151748657 L 5.63670015335083 0.678600549697876 C 6.417900562286377 -0.1025995016098022 7.684200286865234 -0.1025995016098022 8.465400695800781 0.678600549697876 L 9.162899971008301 1.376100540161133 L 9.685800552368164 0.8532004952430725 C 10.37879943847656 0.1602003127336502 11.54879856109619 0.2070006132125854 12.30030059814453 0.9576005339622498 L 13.65929985046387 2.316600561141968 C 14.4099006652832 3.068100452423096 14.45670032501221 4.238100528717041 13.76370048522949 4.931100368499756 L 13.24170017242432 5.454000473022461 L 14.85360050201416 7.065900325775146 C 15.42510032653809 7.63830041885376 15.44490051269531 8.614800453186035 15.4773006439209 9.823500633239746 C 15.51060009002686 11.03310012817383 15.61050033569336 11.09880065917969 15.14520072937012 11.65050029754639 C 15.14970016479492 11.66580009460449 14.57910060882568 12.26790046691895 14.37120056152344 12.49470043182373 C 13.82738018035889 13.03852272033691 13.01802062988281 13.11072063446045 12.56220054626465 12.65490055084229 L 12.00915050506592 12.10185050964355 L 8.208000183105469 15.903000831604 C 7.817850112915039 16.29360008239746 7.30620002746582 16.48890113830566 6.794440269470215 16.48890113830566 Z" stroke="none" fill="#0f1f2e"/>
      </g>
      <g id="합치기_44" data-name="합치기 44" transform="translate(514.092 364.2)" fill="none">
        <path d="M0,3.723,3.371.353A1,1,0,0,1,3.588.188.882.882,0,0,1,4.134,0H8.571a.888.888,0,0,1,.887.887v.887a.887.887,0,0,1-.887.887H4.826L1.883,5.606Z" stroke="none"/>
        <path d="M 1.882727026939392 4.191806793212891 L 4.411770343780518 1.662200093269348 L 8.458100318908691 1.662200093269348 L 8.458100318908691 1 L 4.173405647277832 1 L 4.14447021484375 1.022770047187805 L 4.078410148620605 1.060000061988831 L 1.414309620857239 3.723389387130737 L 1.882727026939392 4.191806793212891 M 1.882800102233887 5.606100082397461 L 1.59454344839105e-07 3.723299980163574 L 3.371400117874146 0.352800041437149 C 3.437440156936646 0.2867600321769714 3.510390043258667 0.2319400459527969 3.587930202484131 0.188230037689209 C 3.738400220870972 0.07032003998756409 3.927840232849121 4.119873153740627e-08 4.133700370788574 4.119873153740627e-08 L 8.570699691772461 4.119873153740627e-08 C 9.060299873352051 4.119873153740627e-08 9.458100318908691 0.3978000283241272 9.458100318908691 0.8874000310897827 L 9.458100318908691 1.774800062179565 C 9.458100318908691 2.265300035476685 9.060299873352051 2.662199974060059 8.570699691772461 2.662199974060059 L 4.826050281524658 2.662199974060059 L 1.882800102233887 5.606100082397461 Z" stroke="none" fill="#0f1f2e"/>
      </g>
      <g id="그룹_14047" data-name="그룹 14047" transform="translate(499.55 377.047)">
        <g id="사각형_4128" data-name="사각형 4128" transform="translate(4.392 0.627) rotate(135)" fill="#fff" stroke="#0f1f2e" stroke-width="1">
          <rect id="fill" width="5.324" height="0.887" rx="0.444" stroke="none"/>
          <path d="M0,0.38729631900787354h5.323777675628662M4.823777675628662,0v0.8872963190078735M5.323777675628662,0.5h-5.323777675628662M0.5,0.8872963190078735v-0.8872963190078735" fill="none" clip-path="url(#clip)"/>
        </g>
        <g id="사각형_4132" data-name="사각형 4132" transform="translate(5.634 1.87) rotate(135)" fill="#fff" stroke="#0f1f2e" stroke-width="1">
          <rect id="fill-2" width="5.324" height="0.887" rx="0.444" stroke="none"/>
          <path d="M0,0.38729631900787354h5.323777675628662M4.823777675628662,0v0.8872963190078735M5.323777675628662,0.5h-5.323777675628662M0.5,0.8872963190078735v-0.8872963190078735" fill="none" clip-path="url(#clip-2)"/>
        </g>
      </g>
      <g id="패스_8380" data-name="패스 8380" transform="translate(509.1 375.557) rotate(45)" fill="#3ddb87">
        <path d="M 3.714258432388306 3.656983852386475 L 0.6085973381996155 3.656983852386475 C 1.223718047142029 3.07138729095459 3.059518098831177 1.321065664291382 3.696078538894653 0.6845138072967529 C 3.878478527069092 0.5021138191223145 3.970288515090942 0.5000038146972656 3.971198558807373 0.5000038146972656 C 4.00894832611084 0.5121984481811523 4.074280261993408 0.6200675964355469 4.081398487091064 0.6807295083999634 L 4.081398487091064 3.303169965744019 C 4.072463989257812 3.657011032104492 3.802901029586792 3.656983852386475 3.714258432388306 3.656983852386475 Z" stroke="none"/>
        <path d="M 3.581398487091064 1.498262166976929 C 3.090805530548096 1.975641250610352 2.421814203262329 2.617279052734375 1.857159852981567 3.156983852386475 L 3.581398487091064 3.156983852386475 L 3.581398487091064 1.498262166976929 M 3.971196174621582 -4.76837158203125e-07 C 4.351551532745361 -4.76837158203125e-07 4.57268238067627 0.4184119701385498 4.581398487091064 0.6656336784362793 L 4.581398487091064 3.304773807525635 C 4.581398487091064 3.304773807525635 4.589488506317139 4.156983852386475 3.714258432388306 4.156983852386475 L 0.444338321685791 4.156983852386475 C 0.09948825836181641 4.156983852386475 -0.1135115623474121 3.780783891677856 0.06390857696533203 3.485073804855347 C 0.06390857696533203 3.485073804855347 2.585258483886719 1.088213682174683 3.342528343200684 0.33095383644104 C 3.582916021347046 0.09056305885314941 3.794300079345703 -4.76837158203125e-07 3.971196174621582 -4.76837158203125e-07 Z" stroke="none" fill="#0f1f2e"/>
      </g>
      <rect id="사각형_4133" data-name="사각형 4133" width="4.88" height="0.887" rx="0.444" transform="translate(508.113 369.251) rotate(45)"/>
      <rect id="사각형_4134" data-name="사각형 4134" width="4.88" height="0.887" rx="0.444" transform="translate(511.801 374.575) rotate(45)"/>
    </g>
  </g>
</svg>
