<svg xmlns="http://www.w3.org/2000/svg" width="28" height="28" viewBox="0 0 28 28">
  <g id="그룹_34998" data-name="그룹 34998" transform="translate(-274 -659)">
    <circle id="타원_2139" data-name="타원 2139" cx="14" cy="14" r="14" transform="translate(274 659)" fill="#fff"/>
    <g id="그룹_34840" data-name="그룹 34840" transform="translate(282 667.001)">
      <path id="패스_34845" data-name="패스 34845" d="M29.026,52.974h0a.167.167,0,0,0,0-.314,5.033,5.033,0,0,1-3-3.324l-.01-.028a.158.158,0,0,0-.3,0l-.01.028a5.032,5.032,0,0,1-3,3.324.167.167,0,0,0,0,.314h0a5.032,5.032,0,0,1,3,3.324l.007.02a.158.158,0,0,0,.3,0l.007-.02a5.032,5.032,0,0,1,3-3.324" transform="translate(-22.601 -44.422)" fill="#6464ff"/>
      <path id="패스_34846" data-name="패스 34846" d="M25.355,25.371l-2.713,2.713a.143.143,0,0,0,.1.244h8.68a.143.143,0,0,1,.143.143v8.68a.143.143,0,0,0,.244.1l2.713-2.713a.26.26,0,0,0,.076-.184V25.438a.143.143,0,0,0-.143-.143H25.539a.26.26,0,0,0-.184.076" transform="translate(-22.6 -25.295)" fill="#6464ff"/>
    </g>
  </g>
</svg>
