<svg xmlns="http://www.w3.org/2000/svg" width="20" height="20" viewBox="0 0 20 20">
  <g id="icon_point" transform="translate(-345 -401)">
    <rect id="area" width="20" height="20" transform="translate(345 401)" fill="none"/>
    <g id="그룹_14061" data-name="그룹 14061" transform="translate(-3 -4)">
      <g id="합치기_47" data-name="합치기 47" transform="translate(349 408)" fill="none">
        <path d="M9.152,13.384a7.062,7.062,0,0,1-2.179.342A6.92,6.92,0,0,1,0,6.862,6.918,6.918,0,0,1,6.973,0,7.064,7.064,0,0,1,9.152.342,7.07,7.07,0,0,1,11.33,0,6.92,6.92,0,0,1,18.3,6.864a6.92,6.92,0,0,1-6.972,6.862A7.064,7.064,0,0,1,9.152,13.384Z" stroke="none"/>
        <path d="M 11.33002090454102 12.72650051116943 C 14.62298107147217 12.72650051116943 17.30200004577637 10.09667110443115 17.30200004577637 6.864180564880371 C 17.30200004577637 3.630660772323608 14.62298107147217 1.000000715255737 11.33002090454102 1.000000715255737 C 10.69079113006592 1.000000715255737 10.06141090393066 1.098690748214722 9.45936107635498 1.293330788612366 L 9.151571273803711 1.39284074306488 L 8.843820571899414 1.293230772018433 C 8.242621421813965 1.098660707473755 7.613101005554199 1.000000715255737 6.972721099853516 1.000000715255737 C 3.679351091384888 1.000000715255737 1.000000953674316 3.629830837249756 1.000000953674316 6.862320899963379 C 1.000000953674316 10.09584045410156 3.679351091384888 12.72650051116943 6.972721099853516 12.72650051116943 C 7.613221168518066 12.72650051116943 8.242671012878418 12.62780094146729 8.843581199645996 12.43316078186035 L 9.151571273803711 12.3333911895752 L 9.459601402282715 12.43306064605713 C 10.06137084960938 12.62777042388916 10.69067096710205 12.72650051116943 11.33002090454102 12.72650051116943 M 11.33002090454102 13.72650051116943 C 10.56967067718506 13.72650051116943 9.837620735168457 13.60642051696777 9.151741027832031 13.38449096679688 C 8.466610908508301 13.60642051696777 7.733820915222168 13.72650051116943 6.972721099853516 13.72650051116943 C 3.122570991516113 13.72650051116943 9.765625463842298e-07 10.65290069580078 9.765625463842298e-07 6.862320899963379 C 9.765625463842298e-07 3.071930646896362 3.122570991516113 7.324218813664629e-07 6.972721099853516 7.324218813664629e-07 C 7.734560966491699 7.324218813664629e-07 8.466610908508301 0.1200807318091393 9.151741027832031 0.3418207466602325 C 9.837620735168457 0.1200807318091393 10.56967067718506 7.324218813664629e-07 11.33002090454102 7.324218813664629e-07 C 15.17869091033936 7.324218813664629e-07 18.30200004577637 3.073610782623291 18.30200004577637 6.864180564880371 C 18.30200004577637 10.65290069580078 15.17869091033936 13.72650051116943 11.33002090454102 13.72650051116943 Z" stroke="none" fill="#0f1f2e"/>
      </g>
      <g id="구성_요소_10_7" data-name="구성 요소 10 – 7" transform="translate(353 410)">
        <text id="P" transform="translate(3 8)" fill="#0f1f2e" font-size="8" font-family="Montserrat-Medium, Montserrat" font-weight="500"><tspan x="-2.888" y="0">P</tspan></text>
      </g>
      <g id="패스_8379" data-name="패스 8379" transform="translate(349 408)" fill="none">
        <path d="M6.863,0A6.863,6.863,0,1,1,0,6.863,6.863,6.863,0,0,1,6.863,0Z" stroke="none"/>
        <path d="M 6.863250732421875 1.000000953674316 C 3.630240440368652 1.000000953674316 1.000000953674316 3.630240440368652 1.000000953674316 6.863250732421875 C 1.000000953674316 10.0962610244751 3.630240440368652 12.72650051116943 6.863250732421875 12.72650051116943 C 10.0962610244751 12.72650051116943 12.72650051116943 10.0962610244751 12.72650051116943 6.863250732421875 C 12.72650051116943 3.630240440368652 10.0962610244751 1.000000953674316 6.863250732421875 1.000000953674316 M 6.863250732421875 9.5367431640625e-07 C 10.65372085571289 9.5367431640625e-07 13.72650051116943 3.072780609130859 13.72650051116943 6.863250732421875 C 13.72650051116943 10.65372085571289 10.65372085571289 13.72650051116943 6.863250732421875 13.72650051116943 C 3.072780609130859 13.72650051116943 9.5367431640625e-07 10.65372085571289 9.5367431640625e-07 6.863250732421875 C 9.5367431640625e-07 3.072780609130859 3.072780609130859 9.5367431640625e-07 6.863250732421875 9.5367431640625e-07 Z" stroke="none" fill="#0f1f2e"/>
      </g>
    </g>
  </g>
</svg>
