<svg xmlns="http://www.w3.org/2000/svg" xmlns:xlink="http://www.w3.org/1999/xlink" width="24" height="24" viewBox="0 0 24 24">
  <defs>
    <clipPath id="clip-path">
      <rect id="사각형_23666" data-name="사각형 23666" width="23" height="9.04" fill="#fff"/>
    </clipPath>
  </defs>
  <g id="logo_NPay_wh" transform="translate(-3151 -1007)">
    <rect id="guide" width="24" height="24" transform="translate(3151 1007)" fill="none"/>
    <g id="그룹_35469" data-name="그룹 35469" transform="translate(3152 1013.977)">
      <g id="그룹_35467" data-name="그룹 35467" clip-path="url(#clip-path)">
        <path id="패스_35132" data-name="패스 35132" d="M38.571,6.428h1.845a2.322,2.322,0,0,1,.758.111,1.473,1.473,0,0,1,.533.308,1.235,1.235,0,0,1,.315.469,1.639,1.639,0,0,1,.1.587v.151a1.565,1.565,0,0,1-.111.591,1.382,1.382,0,0,1-.325.484,1.55,1.55,0,0,1-.532.33,2.059,2.059,0,0,1-.74.122H39.28v2.013h-.709Zm.709.616v1.92H40.3q1.118,0,1.118-.924V7.911a.783.783,0,0,0-.268-.656,1.224,1.224,0,0,0-.77-.211Z" transform="translate(-26.948 -4.491)" fill="#fff"/>
        <path id="패스_35133" data-name="패스 35133" d="M53.412,14.376a1.411,1.411,0,0,1-.942-.294,1,1,0,0,1-.347-.81v-.193a1.069,1.069,0,0,1,.337-.817,1.562,1.562,0,0,1,1.089-.315h1v-.229a.8.8,0,0,0-.19-.584.853.853,0,0,0-.62-.19,1.527,1.527,0,0,0-.6.108,3.324,3.324,0,0,0-.527.287l-.344-.516a3.318,3.318,0,0,1,.645-.347,2.178,2.178,0,0,1,.831-.147,2.074,2.074,0,0,1,.6.082,1.355,1.355,0,0,1,.469.243,1.138,1.138,0,0,1,.308.394,1.207,1.207,0,0,1,.111.527v2.744h-.667v-.473h-.007a.756.756,0,0,1-.154.2,1.112,1.112,0,0,1-.211.154,1.452,1.452,0,0,1-.34.133,1.809,1.809,0,0,1-.441.047m1.132-1.841h-.981a.868.868,0,0,0-.584.158.557.557,0,0,0-.176.437v.1a.457.457,0,0,0,.2.416.867.867,0,0,0,.48.129,1.468,1.468,0,0,0,.448-.061,1.116,1.116,0,0,0,.347-.183.622.622,0,0,0,.2-.247.918.918,0,0,0,.061-.362Z" transform="translate(-36.417 -7.216)" fill="#fff"/>
        <path id="패스_35134" data-name="패스 35134" d="M66.259,13.7l1.032-3.131h.731L65.986,16.1l-.63-.222.509-1.34-1.426-3.977h.752L66.23,13.7Z" transform="translate(-45.021 -7.382)" fill="#fff"/>
        <path id="패스_35135" data-name="패스 35135" d="M0,9.04H9.04V0H0ZM6.78,6.589H5.239L3.781,4.447V6.589H2.26V2.451H3.8L5.26,4.593V2.451H6.78Z" fill="#fff"/>
      </g>
    </g>
  </g>
</svg>
