<svg xmlns="http://www.w3.org/2000/svg" xmlns:xlink="http://www.w3.org/1999/xlink" width="20" height="20" viewBox="0 0 20 20">
  <defs>
    <clipPath id="clip">
      <use xlink:href="#fill"/>
    </clipPath>
    <clipPath id="clip-2">
      <use xlink:href="#fill-2"/>
    </clipPath>
    <clipPath id="clip-3">
      <use xlink:href="#fill-3"/>
    </clipPath>
  </defs>
  <g id="icon_coupon" transform="translate(-209 -401)">
    <rect id="area" width="20" height="20" transform="translate(209 401)" fill="none"/>
    <g id="그룹_14056" data-name="그룹 14056" transform="translate(-3 -3.5)">
      <g id="빼기_63" data-name="빼기 63" transform="translate(212.999 408.5)" fill="none">
        <path d="M3.958,12.261H2a2,2,0,0,1-2-2V2A2,2,0,0,1,2,0H3.8A1.507,1.507,0,0,0,5.26,1.15,1.507,1.507,0,0,0,6.715,0h9.316a2,2,0,0,1,2,2v8.26a2,2,0,0,1-2,2H6.561a1.489,1.489,0,0,0-2.6,0Z" stroke="none"/>
        <path d="M 3.466399192810059 11.26108932495117 C 3.932140350341797 10.77834892272949 4.577872276306152 10.49481010437012 5.259600162506104 10.49481010437012 C 5.941070079803467 10.49481010437012 6.586428642272949 10.77818012237549 7.051938056945801 11.26070022583008 L 16.03079986572266 11.26070022583008 C 16.58209037780762 11.26070022583008 17.03059959411621 10.81219959259033 17.03059959411621 10.26091003417969 L 17.03059959411621 2.000699996948242 C 17.03059959411621 1.448920011520386 16.58209037780762 1.000010013580322 16.03079986572266 1.000010013580322 L 7.357182025909424 1.000010013580322 C 6.90532112121582 1.702777862548828 6.124671936035156 2.150209903717041 5.259600162506104 2.150209903717041 C 4.394330024719238 2.150209903717041 3.613420963287354 1.702776193618774 3.16135311126709 1.000010013580322 L 2.000699996948242 1.000010013580322 C 1.449409961700439 1.000010013580322 1.000899910926819 1.448920011520386 1.000899910926819 2.000699996948242 L 1.000899910926819 10.26091003417969 C 1.000899910926819 10.81219959259033 1.449409961700439 11.26070022583008 2.000969886779785 11.26070022583008 L 3.466399192810059 11.26108932495117 M 3.957609891891479 12.26121997833252 L 2.000699996948242 12.26070022583008 C 0.8980099558830261 12.26070022583008 0.0008999313577078283 11.36359977722168 0.0008999313577078283 10.26091003417969 L 0.0008999313577078283 2.000699996948242 C 0.0008999313577078283 0.8975200057029724 0.8980099558830261 9.989165846491233e-06 2.000699996948242 9.989165846491233e-06 L 3.803839921951294 9.989165846491233e-06 C 3.974679946899414 0.6775400042533875 4.572909832000732 1.150210022926331 5.259600162506104 1.150210022926331 C 5.945670127868652 1.150210022926331 6.543950080871582 0.6772300004959106 6.714509963989258 9.989165846491233e-06 L 16.03079986572266 9.989165846491233e-06 C 17.13348960876465 9.989165846491233e-06 18.03059959411621 0.8975200057029724 18.03059959411621 2.000699996948242 L 18.03059959411621 10.26091003417969 C 18.03059959411621 11.36359977722168 17.13348960876465 12.26070022583008 16.03079986572266 12.26070022583008 L 6.560619831085205 12.26070022583008 C 6.292580127716064 11.78808975219727 5.794389724731445 11.49481010437012 5.259600162506104 11.49481010437012 C 4.724869728088379 11.49481010437012 4.226089954376221 11.78829002380371 3.957900047302246 12.26070976257324 L 3.957609891891479 12.26121997833252 Z" stroke="none" fill="#0f1f2e"/>
      </g>
      <g id="사각형_4136" data-name="사각형 4136" transform="translate(217.688 411.746)" fill="#fff" stroke="#0f1f2e" stroke-width="1">
        <rect id="fill" width="0.721" height="1.442" rx="0.361" stroke="none"/>
        <path d="M0,0.5h0.7212034463882446M0.5,0v1.4424068927764893M0.7212034463882446,0.9424068927764893h-0.7212034463882446M0.22120344638824463,1.4424068927764893v-1.4424068927764893" fill="none" clip-path="url(#clip)"/>
      </g>
      <g id="사각형_4137" data-name="사각형 4137" transform="translate(217.688 413.909)" fill="#fff" stroke="#0f1f2e" stroke-width="1">
        <rect id="fill-2" width="0.721" height="1.442" rx="0.361" stroke="none"/>
        <path d="M0,0.5h0.7212034463882446M0.5,0v1.4424068927764893M0.7212034463882446,0.9424068927764893h-0.7212034463882446M0.22120344638824463,1.4424068927764893v-1.4424068927764893" fill="none" clip-path="url(#clip-2)"/>
      </g>
      <g id="사각형_4138" data-name="사각형 4138" transform="translate(217.688 416.073)" fill="#fff" stroke="#0f1f2e" stroke-width="1">
        <rect id="fill-3" width="0.721" height="1.442" rx="0.361" stroke="none"/>
        <path d="M0,0.5h0.7212034463882446M0.5,0v1.4424068927764893M0.7212034463882446,0.9424068927764893h-0.7212034463882446M0.22120344638824463,1.4424068927764893v-1.4424068927764893" fill="none" clip-path="url(#clip-3)"/>
      </g>
      <g id="타원_1310" data-name="타원 1310" transform="translate(222.394 410.806) rotate(45)" fill="#3ddb87" stroke="#0f1f2e" stroke-width="1">
        <circle cx="1.442" cy="1.442" r="1.442" stroke="none"/>
        <circle cx="1.442" cy="1.442" r="0.942" fill="none"/>
      </g>
      <rect id="사각형_4147" data-name="사각형 4147" width="0.721" height="7.212" rx="0.361" transform="translate(226.473 411.825) rotate(45)" fill="#0f1f2e"/>
      <g id="타원_1312" data-name="타원 1312" transform="translate(225.964 414.375) rotate(45)" fill="#3ddb87" stroke="#0f1f2e" stroke-width="1">
        <circle cx="1.442" cy="1.442" r="1.442" stroke="none"/>
        <circle cx="1.442" cy="1.442" r="0.942" fill="none"/>
      </g>
    </g>
  </g>
</svg>
