<svg xmlns="http://www.w3.org/2000/svg" width="20" height="20" viewBox="0 0 20 20">
  <g id="btn_delete" transform="translate(-164 -510)">
    <rect id="guide" width="20" height="20" transform="translate(164 510)" fill="none"/>
    <g id="그룹_35223" data-name="그룹 35223">
      <rect id="사각형_23487" data-name="사각형 23487" width="10" height="10.5" transform="translate(169.5 515.5)" fill="#fff"/>
      <path id="trash-can-with-cover" d="M16.431,2.754H12.98V.923A.924.924,0,0,0,12.057,0H9.277a.924.924,0,0,0-.923.923V2.754H4.9a.236.236,0,0,0,0,.472h.482v9.561A1.418,1.418,0,0,0,6.8,14.2h7.731a1.418,1.418,0,0,0,1.416-1.416V3.226h.482a.236.236,0,1,0,0-.472ZM8.826.923A.451.451,0,0,1,9.277.472h2.779a.451.451,0,0,1,.451.451V2.754H8.826Zm6.65,11.864a.945.945,0,0,1-.944.944H6.8a.945.945,0,0,1-.944-.944V3.226h9.62ZM12.6,10.9v-5.5a.236.236,0,0,1,.472,0v5.5a.236.236,0,0,1-.472,0Zm-2.165,0v-5.5a.236.236,0,0,1,.472,0v5.5a.236.236,0,0,1-.472,0Zm-2.165,0v-5.5a.236.236,0,0,1,.472,0v5.5a.236.236,0,0,1-.472,0Z" transform="translate(163.833 512.5)" stroke="#000" stroke-linejoin="bevel" stroke-width="0.5"/>
    </g>
  </g>
</svg>
