<svg xmlns="http://www.w3.org/2000/svg" width="20" height="20" viewBox="0 0 20 20">
  <g id="icon_disc" transform="translate(-75 -401)">
    <rect id="사각형_23300" data-name="사각형 23300" width="20" height="20" transform="translate(75 401)" fill="none"/>
    <g id="그룹_34784" data-name="그룹 34784" transform="translate(-2 -4.5)">
      <g id="빼기_101" data-name="빼기 101" transform="translate(78 408.5)" fill="none">
        <path d="M2,0H16a2,2,0,0,1,2,2v9.091a2,2,0,0,1-2,2H2a2,2,0,0,1-2-2V2A2,2,0,0,1,2,0Z" stroke="none"/>
        <path d="M 2 0.9999971389770508 C 1.448600769042969 0.9999971389770508 1 1.448596954345703 1 1.999997138977051 L 1 11.09089756011963 C 1 11.64229774475098 1.448600769042969 12.09089756011963 2 12.09089756011963 L 16 12.09089756011963 C 16.55139923095703 12.09089756011963 17 11.64229774475098 17 11.09089756011963 L 17 1.999997138977051 C 17 1.448596954345703 16.55139923095703 0.9999971389770508 16 0.9999971389770508 L 2 0.9999971389770508 M 2 -2.86102294921875e-06 L 16 -2.86102294921875e-06 C 17.10457038879395 -2.86102294921875e-06 18 0.8954277038574219 18 1.999997138977051 L 18 11.09089756011963 C 18 12.19546699523926 17.10457038879395 13.09089756011963 16 13.09089756011963 L 2 13.09089756011963 C 0.8954296112060547 13.09089756011963 0 12.19546699523926 0 11.09089756011963 L 0 1.999997138977051 C 0 0.8954277038574219 0.8954296112060547 -2.86102294921875e-06 2 -2.86102294921875e-06 Z" stroke="none" fill="#0f1f2e"/>
      </g>
      <rect id="사각형_23302" data-name="사각형 23302" width="16.364" height="0.818" transform="translate(78.818 411.364)" fill="#0f1f2e"/>
      <g id="그룹_34783" data-name="그룹 34783" transform="translate(0.646 -0.306)">
        <g id="타원_2124" data-name="타원 2124" transform="translate(81.394 412.806) rotate(45)" fill="#3ddb87" stroke="#0f1f2e" stroke-width="1">
          <circle cx="1.442" cy="1.442" r="1.442" stroke="none"/>
          <circle cx="1.442" cy="1.442" r="0.942" fill="none"/>
        </g>
        <rect id="사각형_23303" data-name="사각형 23303" width="0.721" height="7.212" rx="0.361" transform="translate(85.473 413.827) rotate(45)" fill="#0f1f2e"/>
        <g id="타원_2125" data-name="타원 2125" transform="translate(84.964 416.376) rotate(45)" fill="#3ddb87" stroke="#0f1f2e" stroke-width="1">
          <circle cx="1.442" cy="1.442" r="1.442" stroke="none"/>
          <circle cx="1.442" cy="1.442" r="0.942" fill="none"/>
        </g>
      </g>
    </g>
  </g>
</svg>
