<svg xmlns="http://www.w3.org/2000/svg" width="28" height="28" viewBox="0 0 28 28">
  <g id="그룹_34998" data-name="그룹 34998" transform="translate(-274 -659)">
    <circle id="타원_2139" data-name="타원 2139" cx="14" cy="14" r="14" transform="translate(274 659)" fill="#fff"/>
    <g id="그룹_20660" data-name="그룹 20660" transform="translate(282 666.824)">
      <path id="패스_19605" data-name="패스 19605" d="M4.124,1.61,1.412,4.4a.147.147,0,0,0,.1.252h8.68a.149.149,0,0,1,.145.15v8.935a.142.142,0,0,0,.244.1l2.712-2.791a.271.271,0,0,0,.076-.19V1.678a.143.143,0,0,0-.142-.146H4.309a.256.256,0,0,0-.185.078" transform="translate(-1.369 -1.532)" fill="#3ddb87"/>
      <path id="패스_19606" data-name="패스 19606" d="M6.12,6.569l-1.9-3.5a.148.148,0,0,0-.264,0l-1.916,3.5A2.527,2.527,0,0,0,1.714,7.81a2.415,2.415,0,0,0,2.365,2.458A2.415,2.415,0,0,0,6.444,7.81,2.527,2.527,0,0,0,6.12,6.569" transform="translate(-0.574 1.955)" fill="#3ddb87"/>
    </g>
  </g>
</svg>
