<svg xmlns="http://www.w3.org/2000/svg" xmlns:xlink="http://www.w3.org/1999/xlink" width="95.464" height="96.491" viewBox="0 0 95.464 96.491">
  <defs>
    <style>
      .cls-1 {
        fill: #f5f5f5;
      }

      .cls-10, .cls-11, .cls-2, .cls-3, .cls-9 {
        fill: none;
      }

      .cls-3, .cls-4, .cls-5 {
        stroke-linejoin: round;
      }

      .cls-4 {
        fill: #fff;
      }

      .cls-4, .cls-5 {
        stroke: #0f1f2e;
        stroke-width: 3px;
      }

      .cls-5 {
        fill: #3ddb87;
      }

      .cls-6 {
        fill: #0f1f2e;
      }

      .cls-7, .cls-8 {
        stroke: none;
      }

      .cls-8 {
        fill: #0f1f2e;
      }

      .cls-9 {
        clip-path: url(#clip);
      }

      .cls-10 {
        clip-path: url(#clip-2);
      }

      .cls-11 {
        clip-path: url(#clip-3);
      }
    </style>
    <clipPath id="clip">
      <use xlink:href="#fill"/>
    </clipPath>
    <clipPath id="clip-2">
      <use xlink:href="#fill-2"/>
    </clipPath>
    <clipPath id="clip-3">
      <use xlink:href="#fill-3"/>
    </clipPath>
  </defs>
  <g id="icon" transform="translate(0 1.491)">
    <circle id="타원_2051" data-name="타원 2051" class="cls-1" cx="47.5" cy="47.5" r="47.5"/>
    <g id="그룹_22071" data-name="그룹 22071" transform="translate(6 4.473)">
      <g id="Box" transform="translate(-5.964 -5.964)">
        <rect id="사각형_4080" data-name="사각형 4080" class="cls-2" width="95.429" height="95.429"/>
      </g>
      <g id="그룹_22075" data-name="그룹 22075" transform="translate(-207.359 -389.351)">
        <g id="빼기_63" data-name="빼기 63" class="cls-3" transform="translate(213.002 408.501)">
          <path class="cls-7" d="M15.746,48.79H8a8.009,8.009,0,0,1-8-8V8A8.009,8.009,0,0,1,8,0h7.135a6,6,0,0,0,5.79,4.574A6,6,0,0,0,26.716,0H63.748a8.009,8.009,0,0,1,8,8V40.789a8.009,8.009,0,0,1-8,8H26.1a5.923,5.923,0,0,0-10.358,0Z"/>
          <path class="cls-8" d="M 14.21919631958008 45.78941345214844 C 15.90547370910645 43.87541961669922 18.34359169006348 42.73980712890625 20.92499732971191 42.73980712890625 C 23.50640296936035 42.73980712890625 25.94445610046387 43.87512969970703 27.63093948364258 45.78900909423828 L 63.74790191650391 45.78900909423828 C 66.50495910644531 45.78900909423828 68.74800109863281 43.54597091674805 68.74800109863281 40.78890228271484 L 68.74800109863281 8.000101089477539 C 68.74800109863281 5.243042469024658 66.50495910644531 3.000007152557373 63.74790191650391 3.000007152557373 L 28.71953582763672 3.000007152557373 C 27.15070533752441 5.777121067047119 24.2065544128418 7.573807239532471 20.92499732971191 7.573807239532471 C 17.64359092712402 7.573807239532471 14.69975662231445 5.777202129364014 13.13115501403809 3.000007152557373 L 7.999197483062744 3.000007152557373 C 5.242138862609863 3.000007152557373 2.999103307723999 5.243042469024658 2.999103307723999 8.000101089477539 L 2.999103307723999 40.78890228271484 C 2.999103307723999 43.54597091674805 5.242138862609863 45.78900909423828 7.999397277832031 45.78900909423828 L 14.21919631958008 45.78941345214844 M 15.74590301513672 48.78951263427734 L 7.999197483062744 48.78900909423828 C 3.587926864624023 48.78900909423828 -0.0008966437890194356 45.20017242431641 -0.0008966437890194356 40.78890228271484 L -0.0008966437890194356 8.000101089477539 C -0.0008966437890194356 3.588830709457397 3.587926864624023 7.190659289335599e-06 7.999197483062744 7.190659289335599e-06 L 15.1345853805542 7.190659289335599e-06 C 15.81412696838379 2.693301200866699 18.19482040405273 4.573807239532471 20.92499732971191 4.573807239532471 C 23.65513801574707 4.573807239532471 26.03658485412598 2.692983627319336 26.71624374389648 7.190659289335599e-06 L 63.74790191650391 7.190659289335599e-06 C 68.15917205810547 7.190659289335599e-06 71.74800109863281 3.588830709457397 71.74800109863281 8.000101089477539 L 71.74800109863281 40.78890228271484 C 71.74800109863281 45.20017242431641 68.15917205810547 48.78900909423828 63.74790191650391 48.78900909423828 L 26.10446739196777 48.78900909423828 C 25.03734970092773 46.90799713134766 23.05302047729492 45.73980712890625 20.92499732971191 45.73980712890625 C 18.79732704162598 45.73980712890625 16.81291580200195 46.90819549560547 15.74618530273438 48.78900909423828 L 15.74590301513672 48.78951263427734 Z"/>
        </g>
        <g id="사각형_4136" data-name="사각형 4136" class="cls-4" transform="translate(231.656 421.416)">
          <rect id="fill" class="cls-7" width="2.87" height="5.74" rx="1.435"/>
          <path class="cls-9" d="M0,1.5h2.8699398040771484M1.5,0v5.739879608154297M2.8699398040771484,4.239879608154297h-2.8699398040771484M1.3699398040771484,5.739879608154297v-5.739879608154297"/>
        </g>
        <g id="사각형_4137" data-name="사각형 4137" class="cls-4" transform="translate(231.656 430.026)">
          <rect id="fill-2" class="cls-7" width="2.87" height="5.74" rx="1.435"/>
          <path class="cls-10" d="M0,1.5h2.8699398040771484M1.5,0v5.739879608154297M2.8699398040771484,4.239879608154297h-2.8699398040771484M1.3699398040771484,5.739879608154297v-5.739879608154297"/>
        </g>
        <g id="사각형_4138" data-name="사각형 4138" class="cls-4" transform="translate(231.656 438.636)">
          <rect id="fill-3" class="cls-7" width="2.87" height="5.74" rx="1.435"/>
          <path class="cls-11" d="M0,1.5h2.8699398040771484M1.5,0v5.739879608154297M2.8699398040771484,4.239879608154297h-2.8699398040771484M1.3699398040771484,5.739879608154297v-5.739879608154297"/>
        </g>
        <g id="타원_1310" data-name="타원 1310" class="cls-5" transform="translate(250.383 417.674) rotate(45)">
          <circle class="cls-7" cx="5.74" cy="5.74" r="5.74"/>
          <circle class="cls-2" cx="5.74" cy="5.74" r="4.24"/>
        </g>
        <rect id="사각형_4147" data-name="사각형 4147" class="cls-6" width="2.87" height="28.699" rx="1.435" transform="translate(266.616 421.733) rotate(45)"/>
        <g id="타원_1312" data-name="타원 1312" class="cls-5" transform="translate(264.59 431.88) rotate(45)">
          <circle class="cls-7" cx="5.74" cy="5.74" r="5.74"/>
          <circle class="cls-2" cx="5.74" cy="5.74" r="4.24"/>
        </g>
      </g>
    </g>
  </g>
</svg>
