<svg id="BI_refuel" xmlns="http://www.w3.org/2000/svg" xmlns:xlink="http://www.w3.org/1999/xlink" width="92.905" height="22" viewBox="0 0 92.905 22">
  <defs>
    <clipPath id="clip-path">
      <rect id="사각형_7198" data-name="사각형 7198" width="22" height="22" fill="#3ddb87"/>
    </clipPath>
  </defs>
  <g id="text" transform="translate(30 3)">
    <path id="패스_19532" data-name="패스 19532" d="M9.776,6.2h1.98V1.353A.051.051,0,0,0,11.7,1.3H9.829a.054.054,0,0,0-.053.053Z" transform="translate(-2.675 -0.222)" fill="#fff"/>
    <path id="패스_19533" data-name="패스 19533" d="M9.813,1.3H7.942a.057.057,0,0,0-.056.053V12.52a.738.738,0,0,0,.74.736h3.456a.21.21,0,0,0,.154-.068l1.676-1.672a.055.055,0,0,0-.038-.094h-4V1.352A.057.057,0,0,0,9.813,1.3" transform="translate(-7.886 -0.225)" fill="#fff"/>
    <path id="패스_19534" data-name="패스 19534" d="M20.9,11.393h3.8a.22.22,0,0,0,.154-.064l1.672-1.67a.052.052,0,0,0-.038-.09H15.9V7.258h9.64a.054.054,0,0,0,.053-.052V2.034a.734.734,0,0,0-.736-.734H15.268a.22.22,0,0,0-.154.064L13.442,3.03a.055.055,0,0,0,.038.094H23.57V5.434h-9.64a.055.055,0,0,0-.056.052v5.172a.736.736,0,0,0,.736.734h4.313V13.7H12.236a.055.055,0,0,0-.056.052v1.715a.058.058,0,0,0,.056.056h15a.058.058,0,0,0,.056-.056V13.756a.055.055,0,0,0-.056-.052H20.9Z" transform="translate(3.8 -0.222)" fill="#fff"/>
    <path id="패스_19535" data-name="패스 19535" d="M24.367,5.338v5.286a.055.055,0,0,0,.056.056H26.29a.058.058,0,0,0,.056-.056V5.338h3.734v5.286a.058.058,0,0,0,.056.056h1.871a.058.058,0,0,0,.056-.056V5.338h2.754a.213.213,0,0,0,.154-.064L36.648,3.6a.053.053,0,0,0-.041-.09H22.271a.219.219,0,0,0-.154.064L20.445,5.244a.055.055,0,0,0,.038.094Z" transform="translate(26.242 5.82)" fill="#fff"/>
    <path id="패스_19536" data-name="패스 19536" d="M26.724,2.847c2.115,0,3.576.842,3.576,2.2,0,1.337-1.5,2.2-3.576,2.2-2.062,0-3.543-.864-3.543-2.2,0-1.36,1.446-2.2,3.543-2.2m0,6.116c3.411,0,5.763-1.537,5.763-3.915,0-2.359-2.352-3.884-5.763-3.884-3.392,0-5.733,1.525-5.733,3.884,0,2.378,2.34,3.915,5.733,3.915" transform="translate(27.797 -0.597)" fill="#fff"/>
    <path id="패스_19537" data-name="패스 19537" d="M12.8,4.945V8.9a.056.056,0,0,0,.094.041L14.72,7.124a.219.219,0,0,0,.064-.154V3.592a.738.738,0,0,0-.736-.736H10.67a.219.219,0,0,0-.154.064L8.694,4.742a.055.055,0,0,0,.038.094h3.963a.109.109,0,0,1,.109.109" transform="translate(-5.703 4.039)" fill="#fff"/>
    <path id="패스_19538" data-name="패스 19538" d="M12.976,1.013H11.106a.054.054,0,0,0-.053.056V17.453a.054.054,0,0,0,.053.056h1.871a.055.055,0,0,0,.053-.056V8.045h1.089a.219.219,0,0,0,.154-.064l1.672-1.667a.054.054,0,0,0-.038-.094H13.029V1.069a.055.055,0,0,0-.053-.056" transform="translate(0.845 -1.013)" fill="#fff"/>
    <path id="패스_19539" data-name="패스 19539" d="M23.146,5.447l.026.015,5.237,3.092a.056.056,0,0,0,.068-.011l1.243-1.27a.051.051,0,0,0-.011-.083l-5.571-3.2V3.13h5.2a.054.054,0,0,0,.053-.053V1.353a.051.051,0,0,0-.053-.053H16.959a.051.051,0,0,0-.053.053V3.077a.054.054,0,0,0,.053.053h5.2v.86L22.128,4,16.553,7.187a.055.055,0,0,0-.011.086l1.27,1.274a.063.063,0,0,0,.068.008Z" transform="translate(15.633 -0.222)" fill="#fff"/>
    <path id="패스_19540" data-name="패스 19540" d="M23.621,5.338v5.286a.055.055,0,0,0,.053.056h1.875a.055.055,0,0,0,.053-.056l.008-5.286h5.233A.213.213,0,0,0,31,5.274L32.671,3.6a.053.053,0,0,0-.038-.09H17.84a.213.213,0,0,0-.154.064L16.01,5.244a.056.056,0,0,0,.041.094Z" transform="translate(14.176 5.82)" fill="#fff"/>
  </g>
  <g id="그룹_20386" data-name="그룹 20386" clip-path="url(#clip-path)">
    <path id="패스_19604" data-name="패스 19604" d="M11,22A11,11,0,1,0,0,11,11,11,0,0,0,11,22" transform="translate(0 0)" fill="#3ddb87"/>
    <g id="그룹_20660" data-name="그룹 20660" transform="translate(4.4 4.73)">
      <path id="패스_19605" data-name="패스 19605" d="M4.177,1.612,1.413,4.457a.15.15,0,0,0,.1.256h8.848a.152.152,0,0,1,.148.152v9.108a.145.145,0,0,0,.249.1l2.764-2.845a.277.277,0,0,0,.077-.194V1.681a.146.146,0,0,0-.145-.149H4.366a.261.261,0,0,0-.189.08" transform="translate(-1.369 -1.532)" fill="#fff"/>
      <path id="패스_19606" data-name="패스 19606" d="M6.205,6.638,4.266,3.068a.151.151,0,0,0-.269,0L2.044,6.638A2.576,2.576,0,0,0,1.714,7.9a2.461,2.461,0,0,0,2.411,2.506A2.461,2.461,0,0,0,6.535,7.9a2.576,2.576,0,0,0-.33-1.265" transform="translate(-0.552 2.051)" fill="#fff"/>
    </g>
  </g>
</svg>
