<svg xmlns="http://www.w3.org/2000/svg" xmlns:xlink="http://www.w3.org/1999/xlink" width="119.781" height="85.32" viewBox="0 0 119.781 85.32">
  <defs>
    <clipPath id="clip-path">
      <rect id="사각형_23485" data-name="사각형 23485" width="72.997" height="34.119" fill="none"/>
    </clipPath>
    <linearGradient id="linear-gradient" x1="0.986" y1="0.637" x2="0.034" y2="0.222" gradientUnits="objectBoundingBox">
      <stop offset="0" stop-color="#2a6546"/>
      <stop offset="1" stop-color="#aaffd2"/>
    </linearGradient>
    <clipPath id="clip-path-2">
      <rect id="사각형_23486" data-name="사각형 23486" width="4.444" height="7.007" fill="#aaffd2"/>
    </clipPath>
    <linearGradient id="linear-gradient-2" x1="0.799" y1="0.639" x2="0.404" y2="0.887" gradientUnits="objectBoundingBox">
      <stop offset="0" stop-color="#3ddb87" stop-opacity="0.114"/>
      <stop offset="1" stop-color="#34c678"/>
    </linearGradient>
  </defs>
  <g id="img_refuel" transform="translate(-650.626 -1678.233)" style="mix-blend-mode: screen;isolation: isolate">
    <g id="그룹_35212" data-name="그룹 35212" transform="matrix(0.951, 0.309, -0.309, 0.951, 700.983, 1678.233)">
      <g id="마스크_그룹_35211" data-name="마스크 그룹 35211" clip-path="url(#clip-path)">
        <path id="합치기_205" data-name="합치기 205" d="M45.138,34.043c-.982-.255-1.625-1.147-2.758-2.63-2.206-2.887-5.194-7.4-6.168-8.76a9.239,9.239,0,0,1-1.6-5.07,18.906,18.906,0,0,1,.829-5.917,1.731,1.731,0,0,0-1.093-2.319,13.205,13.205,0,0,0-3.382-.654A10.271,10.271,0,0,1,32.477.77Q47.8-.2,47.784.053,49.818,1.7,51.869,3.584A85.082,85.082,0,0,1,67.944,23.842l.035.034-.013,0,.011.02-.012-.019-.027.008.039.011L62.16,30.431,58.555,26.8a7.549,7.549,0,0,1-1.9,2.031,33.589,33.589,0,0,1-8.431,4.712,7.475,7.475,0,0,1-2.45.577A2.5,2.5,0,0,1,45.138,34.043ZM38.264,18.836a5.481,5.481,0,0,0,.683,3.572l4.743,6.829c.69.995,1.261,1.608,2.025,1.79a3.359,3.359,0,0,0,1.94-.247c2.149-.788,6.058-2.439,7.248-4.031.266-1.305-2.666-7.071-2.666-7.071l0-.008c-1.937-3.375-5.038-5.261-7.747-4.753A5.278,5.278,0,0,0,41.972,16.2a5.977,5.977,0,0,1-2.4-.171A5.477,5.477,0,0,0,38.264,18.836ZM67.977,23.9Zm-66.3-13A2.332,2.332,0,0,1,.326,9.583a3.323,3.323,0,0,1-.179-2.4l13.87-5.075A18.946,18.946,0,0,1,20.868,1.3l9.891.818a7.3,7.3,0,0,0-.845,2.461,7.525,7.525,0,0,0-.008,2.352L20.063,5.919a25.849,25.849,0,0,0-5.948.685Q2.73,10.926,1.768,10.927,1.685,10.927,1.679,10.9Z" transform="translate(3.594 0)" stroke="#0f1f2e" stroke-width="1" fill="url(#linear-gradient)"/>
      </g>
    </g>
    <g id="그룹_35214" data-name="그룹 35214" transform="translate(698.508 1693.598) rotate(4)">
      <g id="그룹_35214-2" data-name="그룹 35214" transform="translate(0 0)" clip-path="url(#clip-path-2)">
        <path id="패스_35048" data-name="패스 35048" d="M2.222,0a8.831,8.831,0,0,1,2.19,4.2,2.249,2.249,0,0,1-2.2,2.809A2.231,2.231,0,0,1,.018,4.319,8.59,8.59,0,0,1,2.222,0" transform="translate(0 0)" fill="#aaffd2" fill-rule="evenodd"/>
      </g>
    </g>
    <g id="car" transform="translate(430 1177.258)">
      <g id="illust" transform="translate(222.182 536.381)">
        <g id="그룹_12947" data-name="그룹 12947" transform="translate(-1.182 -2)">
          <path id="합치기_9" data-name="합치기 9" d="M40.057,43.968c-1.457,1.219-4.149,1.085-7.835.812-1.327-.1-4.68-.584-8.7-1.222a10.646,10.646,0,0,1-6.348,2.137,11.234,11.234,0,0,1-8.954-4.738c-3.48-.633-6.052-1.142-6.523-1.32C.127,39.044.06,37.681,0,36.041S.689,34.6,1.364,33.335s-1.238-3.6-1.238-3.6a38.038,38.038,0,0,0,1.238-5.685c.054-.736,1.622-2.483,3.444-4a69.5,69.5,0,0,1,15.83-9.282l1.594-.711A98.317,98.317,0,0,1,42.488,2.429,89.253,89.253,0,0,1,60.066.121a70.85,70.85,0,0,1,9.106.053c1.14.065,2.118.149,2.9.243.109.008.127.022.066.042A37.938,37.938,0,0,1,84.844,3.909,12.4,12.4,0,0,1,91,10.767a11.6,11.6,0,0,1,.873,3.669,7.009,7.009,0,0,1,2.8,2.422,13.976,13.976,0,0,1,1.4,4.153c.01.075-1.117-1.694-2.32-2.094,2.265,1.543,3.835,4.9,3.835,8.783,0,5.351-2.974,9.689-6.643,9.689-2.105,0-3.982-1.428-5.2-3.657L75.5,35.774S63.56,40.121,60.428,40.295c-1.718,5.183-6.037,8.86-11.094,8.86A11.333,11.333,0,0,1,40.057,43.968Z" transform="translate(1.38 2.76)" fill="url(#linear-gradient-2)"/>
          <g id="그룹_12945" data-name="그룹 12945">
            <g id="그룹_12944" data-name="그룹 12944" transform="translate(5.212 18.116)">
              <ellipse id="타원_1192" data-name="타원 1192" cx="11.726" cy="13.795" rx="11.726" ry="13.795" transform="translate(0)"/>
              <g id="타원_1191" data-name="타원 1191" transform="translate(8.277 4.139)" fill="#fff" stroke="#0f1f2e" stroke-width="0.75">
                <ellipse cx="6.898" cy="10.002" rx="6.898" ry="10.002" stroke="none"/>
                <ellipse cx="6.898" cy="10.002" rx="6.523" ry="9.627" fill="none"/>
              </g>
              <g id="타원_1193" data-name="타원 1193" transform="translate(12.416 10.346)" fill="#fff" stroke="#0f1f2e" stroke-width="0.75">
                <ellipse cx="2.759" cy="3.794" rx="2.759" ry="3.794" stroke="none"/>
                <ellipse cx="2.759" cy="3.794" rx="2.384" ry="3.419" fill="none"/>
              </g>
              <ellipse id="타원_1187" data-name="타원 1187" cx="11.726" cy="13.795" rx="11.726" ry="13.795" transform="translate(32.349 3.449)"/>
              <ellipse id="타원_1190" data-name="타원 1190" cx="6.553" cy="9.657" rx="6.553" ry="9.657" transform="translate(79.265)"/>
              <g id="타원_1185" data-name="타원 1185" transform="translate(40.691 9.12)" fill="#fff" stroke="#0f1f2e" stroke-width="0.75">
                <ellipse cx="6.132" cy="8.469" rx="6.132" ry="8.469" stroke="none"/>
                <ellipse cx="6.132" cy="8.469" rx="5.757" ry="8.094" fill="none"/>
              </g>
              <g id="타원_1189" data-name="타원 1189" transform="translate(84.935 2.759)" fill="#fff" stroke="#0f1f2e" stroke-width="0.75">
                <ellipse cx="3.372" cy="5.71" rx="3.372" ry="5.71" stroke="none"/>
                <ellipse cx="3.372" cy="5.71" rx="2.997" ry="5.335" fill="none"/>
              </g>
            </g>
            <path id="패스_5875" data-name="패스 5875" d="M5057.534,14297.992h0a14.074,14.074,0,0,0-1.4-4.149,7.034,7.034,0,0,0-2.8-2.424,11.516,11.516,0,0,0-.873-3.668,12.394,12.394,0,0,0-6.155-6.863c-4.406-2.369-15.447-5.256-30.8-3.215s-22.089,5.016-33.421,10.078a69.23,69.23,0,0,0-15.831,9.289c-1.824,1.513-3.392,3.261-3.445,3.994a38.092,38.092,0,0,1-1.238,5.687s1.912,2.334,1.238,3.6-1.418,1.063-1.36,2.707.122,3,1.689,3.6,26.312,4.833,30.535,5.146,7.145.442,8.4-1.437,2.224-9.685,2.714-11.987,2.577-7.3,6.5-8.456a7.032,7.032,0,0,1,8.62,4.589c1.071,3.275,1.728,10.783,1.248,12.5s15.813-4.215,15.813-4.215l11.636-2.326s1.113-7.907,2.272-10.9,2.883-3.951,4.153-3.69,2.517,2.225,2.508,2.143" transform="translate(-4961.446 -14276.979)" fill="#fff" stroke="#0f1f2e" stroke-width="0.75"/>
            <path id="패스_5880" data-name="패스 5880" d="M4965.935,14312.405l-.388.3-1.167,1.43c.007.535,2.041,7.082,2.137,7.162.8.657,15.5,2.84,16.342,2.248s4.624-6.589,4.484-6.955a28.529,28.529,0,0,0-3.624-2.455S4966.59,14312.244,4965.935,14312.405Z" transform="translate(-4962.355 -14287.865)" fill="#fff" stroke="#0f1f2e" stroke-width="0.75"/>
            <path id="패스_5876" data-name="패스 5876" d="M4967.127,14305.728v2.067l18.11,1.468s18.871-4.182,19.506-3.971-2.7,7.468-4.126,8.03-8.606,1.761-9.846,2.776-3.611,3.426-3.26,5.927,6.648,4.229,6.648,4.229,7.469,2.913,8.455-1.528c.228-1.015.832-5.529,1.343-7.507,1.476-5.735,4.227-11.361,10.1-11.928,7.616-.731,8.173,4.306,8.77,5.848a42.019,42.019,0,0,1,1.354,10.057c.041,1.684,3.1-.4,9.283-2.626a80.774,80.774,0,0,1,12.837-3.185c0-.088,3.039.8,3.25.427s-.124-7.106,2.928-11.054,5.916-1.887,5.916-1.887" transform="translate(-4963.21 -14284.686)" fill="#fff" stroke="#0f1f2e" stroke-width="0.75"/>
            <path id="패스_5884" data-name="패스 5884" d="M5065.355,14281.523a24.153,24.153,0,0,1,3,11.18c.5.133,6.69-1.438,6.69-1.438s4.32-4.4,4.582-4.929-3.2-3.151-7.2-4.388C5068.627,14280.777,5064.475,14280.552,5065.355,14281.523Z" transform="translate(-4992.324 -14278.201)" fill="#fff" stroke="#0f1f2e" stroke-width="0.75"/>
            <path id="패스_5883" data-name="패스 5883" d="M5040.933,14277.407c1.077.084-6.836.667-12.254,3.283a34.742,34.742,0,0,0-9.62,7.43l-18.889,4.469c-5.607-.262-11.261-.532-11.63-1.251s2.377-3.867,2.377-3.867a95.2,95.2,0,0,1,20.836-8.054A93.77,93.77,0,0,1,5040.933,14277.407Z" transform="translate(-4969.276 -14276.996)" fill="#fff" stroke="#0f1f2e" stroke-width="0.75"/>
            <path id="패스_5877" data-name="패스 5877" d="M5021.158,14305.2s16.806-10.411,24.209,6.881" transform="translate(-4979.215 -14284.693)" fill="none" stroke="#0f1f2e" stroke-width="0.75"/>
            <path id="패스_5879" data-name="패스 5879" d="M5048.668,14317.068l5.23-6.38,14.833-2.468s2.625-9.843,10.532-10.271" transform="translate(-4987.185 -14283.402)" fill="#fff" stroke="#0f1f2e" stroke-width="0.75"/>
          </g>
          <path id="패스_6019" data-name="패스 6019" d="M.042,8.239c-.5-.476,3.473-3.812,7.911-6.082S16.732-.308,18.1.288c.99,1.052,3.5,6.918,2.326,10.059-.576.873-6.149,1.426-8,1.542S.536,8.716.042,8.239Z" transform="matrix(0.996, -0.087, 0.087, 0.996, 50.489, 6.109)" fill="#fff" stroke="#0f1f2e" stroke-width="0.75"/>
        </g>
      </g>
    </g>
  </g>
</svg>
