<svg id="그룹_24247" data-name="그룹 24247" xmlns="http://www.w3.org/2000/svg" xmlns:xlink="http://www.w3.org/1999/xlink" width="32" height="32" viewBox="0 0 32 32">
  <defs>
    <clipPath id="clip-path">
      <rect id="사각형_23243" data-name="사각형 23243" width="32" height="32" fill="none"/>
    </clipPath>
  </defs>
  <g id="그룹_34690" data-name="그룹 34690" clip-path="url(#clip-path)">
    <path id="패스_34844" data-name="패스 34844" d="M16,32A16,16,0,1,0,0,16,16,16,0,0,0,16,32" fill="#6464ff"/>
    <g id="그룹_34840" data-name="그룹 34840" transform="translate(6.4 6.88)">
      <path id="패스_34845" data-name="패스 34845" d="M32.129,54.794h0a.247.247,0,0,0,0-.465A7.463,7.463,0,0,1,27.684,49.4l-.015-.041a.235.235,0,0,0-.441,0l-.015.041a7.462,7.462,0,0,1-4.449,4.929.247.247,0,0,0,0,.465h0a7.463,7.463,0,0,1,4.449,4.929l.011.029a.234.234,0,0,0,.441,0l.01-.029a7.463,7.463,0,0,1,4.449-4.929" transform="translate(-22.601 -42.113)" fill="#fff"/>
      <path id="패스_34846" data-name="패스 34846" d="M26.686,25.408l-4.023,4.023a.212.212,0,0,0,.15.362H35.685a.212.212,0,0,1,.212.212V42.878a.212.212,0,0,0,.362.15L40.282,39a.386.386,0,0,0,.113-.273V25.507a.212.212,0,0,0-.212-.212H26.958a.385.385,0,0,0-.273.113" transform="translate(-22.6 -25.295)" fill="#fff"/>
    </g>
  </g>
</svg>
